%FSLAX25Y25*%
%MOIN*%
G70*
G01*
G75*
%ADD10R,0.05906X0.05118*%
%ADD11R,0.04921X0.01181*%
%ADD12R,0.05118X0.05906*%
%ADD13R,0.08012X0.05906*%
%ADD14R,0.08661X0.05906*%
%ADD15C,0.03937*%
%ADD16C,0.01181*%
%ADD17C,0.05906*%
G04:AMPARAMS|DCode=18|XSize=59.06mil|YSize=59.06mil|CornerRadius=0mil|HoleSize=0mil|Usage=FLASHONLY|Rotation=270.000|XOffset=0mil|YOffset=0mil|HoleType=Round|Shape=Octagon|*
%AMOCTAGOND18*
4,1,8,-0.01476,-0.02953,0.01476,-0.02953,0.02953,-0.01476,0.02953,0.01476,0.01476,0.02953,-0.01476,0.02953,-0.02953,0.01476,-0.02953,-0.01476,-0.01476,-0.02953,0.0*
%
%ADD18OCTAGOND18*%

G04:AMPARAMS|DCode=19|XSize=59.06mil|YSize=59.06mil|CornerRadius=0mil|HoleSize=0mil|Usage=FLASHONLY|Rotation=180.000|XOffset=0mil|YOffset=0mil|HoleType=Round|Shape=Octagon|*
%AMOCTAGOND19*
4,1,8,-0.02953,0.01476,-0.02953,-0.01476,-0.01476,-0.02953,0.01476,-0.02953,0.02953,-0.01476,0.02953,0.01476,0.01476,0.02953,-0.01476,0.02953,-0.02953,0.01476,0.0*
%
%ADD19OCTAGOND19*%

%ADD20C,0.14961*%
%ADD21C,0.06299*%
%ADD22R,0.06299X0.06299*%
%ADD23C,0.02756*%
%ADD24C,0.03937*%
%ADD25C,0.05512*%
D10*
X123602Y140260D02*
D03*
Y147740D02*
D03*
X90000Y77260D02*
D03*
Y84740D02*
D03*
X100000Y77260D02*
D03*
Y84740D02*
D03*
X68760Y77260D02*
D03*
Y84740D02*
D03*
X111398Y147740D02*
D03*
Y140260D02*
D03*
D11*
X114862Y111221D02*
D03*
Y108661D02*
D03*
Y106102D02*
D03*
Y103543D02*
D03*
Y100984D02*
D03*
Y98425D02*
D03*
Y95866D02*
D03*
Y113779D02*
D03*
Y116339D02*
D03*
Y118898D02*
D03*
Y121457D02*
D03*
Y124016D02*
D03*
Y126575D02*
D03*
Y129134D02*
D03*
X85138Y113779D02*
D03*
Y116339D02*
D03*
Y118898D02*
D03*
Y121457D02*
D03*
Y124016D02*
D03*
Y126575D02*
D03*
Y129134D02*
D03*
Y111221D02*
D03*
Y108661D02*
D03*
Y106102D02*
D03*
Y103543D02*
D03*
Y100984D02*
D03*
Y98425D02*
D03*
Y95866D02*
D03*
D12*
X96240Y160000D02*
D03*
X88760D02*
D03*
X96240Y150000D02*
D03*
X88760D02*
D03*
X68760Y160000D02*
D03*
Y150000D02*
D03*
Y68000D02*
D03*
X96240D02*
D03*
X88760D02*
D03*
D13*
X77440Y160000D02*
D03*
Y150000D02*
D03*
Y68000D02*
D03*
D14*
X123602Y160000D02*
D03*
X111398D02*
D03*
D17*
X60000Y97500D02*
D03*
Y107500D02*
D03*
Y117500D02*
D03*
X117500Y70000D02*
D03*
X127500D02*
D03*
X155500Y84500D02*
D03*
X165500D02*
D03*
X175500D02*
D03*
D18*
X60000Y127500D02*
D03*
D19*
X137500Y70000D02*
D03*
X185500Y84500D02*
D03*
D20*
X154449Y108799D02*
D03*
Y156201D02*
D03*
D21*
X143780Y127579D02*
D03*
Y137421D02*
D03*
X135906Y127579D02*
D03*
D22*
Y137421D02*
D03*
M02*
