%FSLAX25Y25*%
%MOIN*%
G70*
G01*
G75*
%ADD10R,0.05906X0.05118*%
%ADD11R,0.04921X0.01181*%
%ADD12R,0.05118X0.05906*%
%ADD13R,0.08012X0.05906*%
%ADD14R,0.08661X0.05906*%
%ADD15C,0.03937*%
%ADD16C,0.01181*%
%ADD17C,0.05906*%
G04:AMPARAMS|DCode=18|XSize=59.06mil|YSize=59.06mil|CornerRadius=0mil|HoleSize=0mil|Usage=FLASHONLY|Rotation=270.000|XOffset=0mil|YOffset=0mil|HoleType=Round|Shape=Octagon|*
%AMOCTAGOND18*
4,1,8,-0.01476,-0.02953,0.01476,-0.02953,0.02953,-0.01476,0.02953,0.01476,0.01476,0.02953,-0.01476,0.02953,-0.02953,0.01476,-0.02953,-0.01476,-0.01476,-0.02953,0.0*
%
%ADD18OCTAGOND18*%

G04:AMPARAMS|DCode=19|XSize=59.06mil|YSize=59.06mil|CornerRadius=0mil|HoleSize=0mil|Usage=FLASHONLY|Rotation=180.000|XOffset=0mil|YOffset=0mil|HoleType=Round|Shape=Octagon|*
%AMOCTAGOND19*
4,1,8,-0.02953,0.01476,-0.02953,-0.01476,-0.01476,-0.02953,0.01476,-0.02953,0.02953,-0.01476,0.02953,0.01476,0.01476,0.02953,-0.01476,0.02953,-0.02953,0.01476,0.0*
%
%ADD19OCTAGOND19*%

%ADD20C,0.14961*%
%ADD21C,0.06299*%
%ADD22R,0.06299X0.06299*%
%ADD23C,0.02756*%
%ADD24C,0.03937*%
%ADD25C,0.05512*%
%ADD26C,0.01000*%
%ADD27C,0.00984*%
%ADD28C,0.00394*%
%ADD29C,0.00800*%
%ADD30C,0.00787*%
%ADD31C,0.00591*%
%ADD32R,0.04000X0.04000*%
G36*
X139362Y89266D02*
X142532D01*
Y88200D01*
X138086D01*
Y94459D01*
X139362D01*
Y89266D01*
D02*
G37*
G36*
X131354Y88200D02*
X130078D01*
Y90960D01*
X127591D01*
Y88200D01*
X126316D01*
Y94504D01*
X127591D01*
Y92026D01*
X130078D01*
Y94504D01*
X131354D01*
Y88200D01*
D02*
G37*
G36*
X133885Y81630D02*
X133935Y81621D01*
X133999Y81607D01*
X134067Y81584D01*
X134135Y81557D01*
X134208Y81516D01*
X134017Y80993D01*
X134012Y80997D01*
X133990Y81006D01*
X133962Y81024D01*
X133926Y81043D01*
X133880Y81061D01*
X133835Y81079D01*
X133785Y81088D01*
X133735Y81093D01*
X133717D01*
X133689Y81088D01*
X133662Y81084D01*
X133630Y81075D01*
X133594Y81061D01*
X133557Y81043D01*
X133521Y81020D01*
X133517Y81015D01*
X133507Y81006D01*
X133489Y80988D01*
X133471Y80961D01*
X133448Y80929D01*
X133425Y80883D01*
X133403Y80829D01*
X133385Y80765D01*
Y80756D01*
X133380Y80742D01*
X133375Y80729D01*
Y80706D01*
X133371Y80679D01*
X133366Y80642D01*
X133362Y80601D01*
X133357Y80556D01*
X133353Y80497D01*
X133348Y80437D01*
Y80365D01*
X133344Y80287D01*
X133339Y80201D01*
Y80105D01*
Y80001D01*
Y79300D01*
X132734D01*
Y81584D01*
X133293D01*
Y81261D01*
X133298Y81266D01*
X133316Y81293D01*
X133344Y81334D01*
X133380Y81384D01*
X133416Y81434D01*
X133462Y81484D01*
X133503Y81529D01*
X133548Y81561D01*
X133553Y81566D01*
X133566Y81575D01*
X133594Y81584D01*
X133626Y81598D01*
X133662Y81611D01*
X133708Y81625D01*
X133753Y81630D01*
X133808Y81634D01*
X133844D01*
X133885Y81630D01*
D02*
G37*
G36*
X137230Y93438D02*
X135371D01*
Y88200D01*
X134096D01*
Y93438D01*
X132228D01*
Y94504D01*
X137230D01*
Y93438D01*
D02*
G37*
G36*
X170122Y100330D02*
X170163Y100325D01*
X170213Y100316D01*
X170268Y100307D01*
X170327Y100293D01*
X170391Y100275D01*
X170454Y100252D01*
X170523Y100225D01*
X170591Y100189D01*
X170655Y100152D01*
X170718Y100107D01*
X170782Y100052D01*
X170837Y99993D01*
X170841Y99988D01*
X170850Y99979D01*
X170864Y99957D01*
X170882Y99929D01*
X170905Y99893D01*
X170928Y99852D01*
X170955Y99797D01*
X170982Y99738D01*
X171010Y99670D01*
X171037Y99593D01*
X171060Y99511D01*
X171082Y99415D01*
X171100Y99315D01*
X171114Y99206D01*
X171123Y99092D01*
Y98965D01*
X169613D01*
Y98960D01*
Y98951D01*
Y98937D01*
X169617Y98919D01*
X169622Y98874D01*
X169631Y98810D01*
X169649Y98746D01*
X169676Y98673D01*
X169708Y98605D01*
X169754Y98546D01*
X169758Y98541D01*
X169781Y98523D01*
X169808Y98501D01*
X169849Y98473D01*
X169899Y98446D01*
X169963Y98423D01*
X170031Y98405D01*
X170104Y98400D01*
X170127D01*
X170154Y98405D01*
X170186Y98409D01*
X170222Y98419D01*
X170263Y98432D01*
X170304Y98450D01*
X170341Y98478D01*
X170345Y98482D01*
X170359Y98491D01*
X170377Y98510D01*
X170395Y98537D01*
X170423Y98573D01*
X170445Y98614D01*
X170468Y98669D01*
X170491Y98728D01*
X171091Y98628D01*
Y98623D01*
X171087Y98614D01*
X171078Y98596D01*
X171069Y98573D01*
X171055Y98546D01*
X171041Y98514D01*
X171001Y98441D01*
X170950Y98360D01*
X170887Y98273D01*
X170809Y98196D01*
X170723Y98123D01*
X170718D01*
X170714Y98114D01*
X170696Y98109D01*
X170677Y98096D01*
X170655Y98082D01*
X170623Y98068D01*
X170591Y98055D01*
X170550Y98036D01*
X170459Y98005D01*
X170354Y97977D01*
X170231Y97959D01*
X170099Y97950D01*
X170072D01*
X170045Y97954D01*
X170004D01*
X169954Y97964D01*
X169895Y97973D01*
X169831Y97982D01*
X169767Y98000D01*
X169695Y98018D01*
X169622Y98045D01*
X169549Y98077D01*
X169476Y98114D01*
X169403Y98159D01*
X169335Y98209D01*
X169276Y98268D01*
X169217Y98337D01*
X169212Y98341D01*
X169208Y98350D01*
X169199Y98369D01*
X169180Y98391D01*
X169167Y98423D01*
X169149Y98460D01*
X169126Y98501D01*
X169108Y98550D01*
X169085Y98605D01*
X169067Y98664D01*
X169044Y98728D01*
X169030Y98801D01*
X169017Y98874D01*
X169003Y98951D01*
X168999Y99037D01*
X168994Y99124D01*
Y99128D01*
Y99147D01*
Y99178D01*
X168999Y99219D01*
X169003Y99265D01*
X169008Y99319D01*
X169017Y99379D01*
X169030Y99447D01*
X169067Y99588D01*
X169089Y99661D01*
X169117Y99738D01*
X169153Y99811D01*
X169194Y99879D01*
X169240Y99947D01*
X169290Y100011D01*
X169294Y100016D01*
X169303Y100025D01*
X169322Y100043D01*
X169344Y100061D01*
X169372Y100084D01*
X169408Y100111D01*
X169449Y100143D01*
X169494Y100175D01*
X169544Y100202D01*
X169604Y100234D01*
X169663Y100261D01*
X169731Y100284D01*
X169799Y100302D01*
X169877Y100320D01*
X169954Y100330D01*
X170036Y100334D01*
X170086D01*
X170122Y100330D01*
D02*
G37*
G36*
X190561Y99984D02*
X190566Y99988D01*
X190575Y99998D01*
X190593Y100016D01*
X190611Y100038D01*
X190643Y100066D01*
X190675Y100093D01*
X190716Y100125D01*
X190756Y100161D01*
X190807Y100193D01*
X190861Y100225D01*
X190980Y100279D01*
X191043Y100302D01*
X191111Y100320D01*
X191184Y100330D01*
X191257Y100334D01*
X191294D01*
X191334Y100330D01*
X191384Y100325D01*
X191444Y100316D01*
X191503Y100298D01*
X191571Y100279D01*
X191635Y100252D01*
X191644Y100248D01*
X191662Y100239D01*
X191694Y100220D01*
X191730Y100198D01*
X191771Y100170D01*
X191812Y100138D01*
X191853Y100098D01*
X191890Y100057D01*
X191894Y100052D01*
X191903Y100034D01*
X191917Y100011D01*
X191935Y99979D01*
X191958Y99938D01*
X191976Y99893D01*
X191994Y99843D01*
X192008Y99788D01*
Y99784D01*
X192012Y99761D01*
X192017Y99725D01*
X192026Y99679D01*
X192031Y99615D01*
X192035Y99538D01*
X192040Y99447D01*
Y99338D01*
Y98000D01*
X191435D01*
Y99201D01*
Y99206D01*
Y99215D01*
Y99233D01*
Y99260D01*
Y99288D01*
Y99319D01*
X191430Y99392D01*
X191425Y99470D01*
X191421Y99547D01*
X191412Y99611D01*
X191403Y99634D01*
X191398Y99656D01*
Y99661D01*
X191389Y99674D01*
X191380Y99688D01*
X191371Y99711D01*
X191330Y99761D01*
X191307Y99788D01*
X191275Y99811D01*
X191271Y99815D01*
X191262Y99820D01*
X191239Y99829D01*
X191216Y99843D01*
X191184Y99852D01*
X191148Y99861D01*
X191102Y99866D01*
X191057Y99870D01*
X191030D01*
X191002Y99866D01*
X190966Y99861D01*
X190925Y99852D01*
X190879Y99838D01*
X190834Y99820D01*
X190788Y99793D01*
X190784Y99788D01*
X190770Y99779D01*
X190747Y99761D01*
X190725Y99738D01*
X190693Y99706D01*
X190666Y99670D01*
X190638Y99624D01*
X190615Y99574D01*
Y99570D01*
X190606Y99547D01*
X190597Y99515D01*
X190588Y99465D01*
X190579Y99406D01*
X190570Y99329D01*
X190566Y99242D01*
X190561Y99142D01*
Y98000D01*
X189956D01*
Y101149D01*
X190561D01*
Y99984D01*
D02*
G37*
G36*
X189341Y98000D02*
X188782D01*
Y98341D01*
X188777Y98332D01*
X188759Y98309D01*
X188732Y98277D01*
X188691Y98237D01*
X188645Y98186D01*
X188586Y98141D01*
X188523Y98091D01*
X188450Y98050D01*
X188441Y98045D01*
X188413Y98036D01*
X188372Y98018D01*
X188318Y98000D01*
X188254Y97982D01*
X188181Y97964D01*
X188104Y97954D01*
X188022Y97950D01*
X187981D01*
X187940Y97954D01*
X187885Y97964D01*
X187817Y97973D01*
X187749Y97991D01*
X187676Y98018D01*
X187608Y98050D01*
X187599Y98055D01*
X187581Y98068D01*
X187544Y98091D01*
X187508Y98123D01*
X187462Y98164D01*
X187421Y98209D01*
X187380Y98268D01*
X187344Y98332D01*
X187339Y98341D01*
X187330Y98364D01*
X187317Y98405D01*
X187303Y98464D01*
X187290Y98537D01*
X187276Y98623D01*
X187267Y98724D01*
X187262Y98837D01*
Y100284D01*
X187867D01*
Y99233D01*
Y99229D01*
Y99210D01*
Y99187D01*
Y99156D01*
Y99119D01*
Y99078D01*
X187872Y98983D01*
X187876Y98878D01*
X187881Y98783D01*
X187885Y98742D01*
X187890Y98701D01*
X187895Y98669D01*
X187899Y98646D01*
Y98642D01*
X187904Y98628D01*
X187913Y98610D01*
X187926Y98582D01*
X187940Y98555D01*
X187963Y98528D01*
X187986Y98501D01*
X188017Y98473D01*
X188022Y98469D01*
X188036Y98464D01*
X188054Y98455D01*
X188081Y98446D01*
X188113Y98432D01*
X188154Y98423D01*
X188195Y98419D01*
X188245Y98414D01*
X188272D01*
X188300Y98419D01*
X188336Y98423D01*
X188381Y98432D01*
X188427Y98450D01*
X188477Y98469D01*
X188523Y98496D01*
X188527Y98501D01*
X188541Y98510D01*
X188563Y98528D01*
X188591Y98555D01*
X188618Y98587D01*
X188645Y98619D01*
X188673Y98660D01*
X188691Y98705D01*
Y98710D01*
X188700Y98733D01*
Y98751D01*
X188705Y98773D01*
X188709Y98796D01*
X188714Y98828D01*
X188718Y98869D01*
X188723Y98910D01*
X188727Y98960D01*
Y99019D01*
X188732Y99083D01*
X188736Y99156D01*
Y99233D01*
Y99319D01*
Y100284D01*
X189341D01*
Y98000D01*
D02*
G37*
G36*
X174668D02*
X174063D01*
Y100284D01*
X174668D01*
Y98000D01*
D02*
G37*
G36*
X185183Y99984D02*
X185187Y99988D01*
X185196Y99998D01*
X185215Y100016D01*
X185233Y100038D01*
X185265Y100066D01*
X185297Y100093D01*
X185337Y100125D01*
X185378Y100161D01*
X185429Y100193D01*
X185483Y100225D01*
X185601Y100279D01*
X185665Y100302D01*
X185733Y100320D01*
X185806Y100330D01*
X185879Y100334D01*
X185915D01*
X185956Y100330D01*
X186006Y100325D01*
X186065Y100316D01*
X186125Y100298D01*
X186193Y100279D01*
X186257Y100252D01*
X186266Y100248D01*
X186284Y100239D01*
X186316Y100220D01*
X186352Y100198D01*
X186393Y100170D01*
X186434Y100138D01*
X186475Y100098D01*
X186511Y100057D01*
X186516Y100052D01*
X186525Y100034D01*
X186539Y100011D01*
X186557Y99979D01*
X186580Y99938D01*
X186598Y99893D01*
X186616Y99843D01*
X186630Y99788D01*
Y99784D01*
X186634Y99761D01*
X186639Y99725D01*
X186648Y99679D01*
X186652Y99615D01*
X186657Y99538D01*
X186662Y99447D01*
Y99338D01*
Y98000D01*
X186056D01*
Y99201D01*
Y99206D01*
Y99215D01*
Y99233D01*
Y99260D01*
Y99288D01*
Y99319D01*
X186052Y99392D01*
X186047Y99470D01*
X186043Y99547D01*
X186034Y99611D01*
X186024Y99634D01*
X186020Y99656D01*
Y99661D01*
X186011Y99674D01*
X186002Y99688D01*
X185993Y99711D01*
X185952Y99761D01*
X185929Y99788D01*
X185897Y99811D01*
X185893Y99815D01*
X185883Y99820D01*
X185861Y99829D01*
X185838Y99843D01*
X185806Y99852D01*
X185770Y99861D01*
X185724Y99866D01*
X185679Y99870D01*
X185651D01*
X185624Y99866D01*
X185588Y99861D01*
X185547Y99852D01*
X185501Y99838D01*
X185456Y99820D01*
X185410Y99793D01*
X185406Y99788D01*
X185392Y99779D01*
X185369Y99761D01*
X185347Y99738D01*
X185315Y99706D01*
X185287Y99670D01*
X185260Y99624D01*
X185237Y99574D01*
Y99570D01*
X185228Y99547D01*
X185219Y99515D01*
X185210Y99465D01*
X185201Y99406D01*
X185192Y99329D01*
X185187Y99242D01*
X185183Y99142D01*
Y98000D01*
X184578D01*
Y101149D01*
X185183D01*
Y99984D01*
D02*
G37*
G36*
X125777Y79300D02*
X125172D01*
Y82449D01*
X125777D01*
Y79300D01*
D02*
G37*
G36*
X127001D02*
X126396D01*
Y82449D01*
X127001D01*
Y79300D01*
D02*
G37*
G36*
X123607Y81630D02*
X123652Y81625D01*
X123702Y81616D01*
X123761Y81607D01*
X123820Y81593D01*
X123889Y81575D01*
X123957Y81552D01*
X124025Y81525D01*
X124098Y81493D01*
X124171Y81452D01*
X124239Y81407D01*
X124307Y81357D01*
X124371Y81297D01*
X124375Y81293D01*
X124385Y81284D01*
X124403Y81261D01*
X124421Y81238D01*
X124448Y81202D01*
X124476Y81165D01*
X124507Y81115D01*
X124539Y81065D01*
X124567Y81006D01*
X124599Y80943D01*
X124626Y80870D01*
X124653Y80797D01*
X124671Y80715D01*
X124689Y80633D01*
X124699Y80542D01*
X124703Y80447D01*
Y80442D01*
Y80424D01*
Y80397D01*
X124699Y80360D01*
X124694Y80315D01*
X124685Y80265D01*
X124676Y80205D01*
X124662Y80146D01*
X124644Y80078D01*
X124621Y80010D01*
X124594Y79937D01*
X124562Y79864D01*
X124521Y79791D01*
X124476Y79723D01*
X124426Y79655D01*
X124366Y79587D01*
X124362Y79582D01*
X124353Y79573D01*
X124335Y79555D01*
X124307Y79532D01*
X124275Y79509D01*
X124234Y79482D01*
X124189Y79450D01*
X124139Y79418D01*
X124080Y79387D01*
X124016Y79355D01*
X123948Y79327D01*
X123871Y79304D01*
X123793Y79282D01*
X123707Y79264D01*
X123620Y79255D01*
X123525Y79250D01*
X123493D01*
X123470Y79255D01*
X123443D01*
X123411Y79259D01*
X123334Y79268D01*
X123238Y79286D01*
X123138Y79309D01*
X123033Y79346D01*
X122924Y79391D01*
X122919D01*
X122910Y79396D01*
X122897Y79405D01*
X122879Y79418D01*
X122828Y79450D01*
X122765Y79496D01*
X122697Y79555D01*
X122624Y79628D01*
X122555Y79710D01*
X122492Y79805D01*
Y79810D01*
X122487Y79819D01*
X122478Y79832D01*
X122469Y79855D01*
X122460Y79882D01*
X122446Y79914D01*
X122433Y79951D01*
X122419Y79992D01*
X122405Y80037D01*
X122392Y80087D01*
X122369Y80201D01*
X122351Y80333D01*
X122346Y80474D01*
Y80478D01*
Y80488D01*
Y80506D01*
X122351Y80524D01*
Y80551D01*
X122355Y80583D01*
X122364Y80660D01*
X122383Y80747D01*
X122410Y80842D01*
X122442Y80947D01*
X122492Y81052D01*
Y81056D01*
X122501Y81065D01*
X122505Y81079D01*
X122519Y81097D01*
X122555Y81147D01*
X122601Y81211D01*
X122660Y81279D01*
X122733Y81352D01*
X122815Y81420D01*
X122910Y81484D01*
X122915D01*
X122924Y81489D01*
X122938Y81498D01*
X122960Y81507D01*
X122983Y81520D01*
X123015Y81529D01*
X123052Y81543D01*
X123088Y81561D01*
X123179Y81589D01*
X123284Y81611D01*
X123397Y81630D01*
X123520Y81634D01*
X123570D01*
X123607Y81630D01*
D02*
G37*
G36*
X130650Y81316D02*
X130655Y81320D01*
X130664Y81329D01*
X130677Y81343D01*
X130700Y81366D01*
X130727Y81388D01*
X130759Y81416D01*
X130796Y81448D01*
X130836Y81475D01*
X130932Y81534D01*
X131046Y81584D01*
X131105Y81607D01*
X131173Y81621D01*
X131242Y81630D01*
X131310Y81634D01*
X131351D01*
X131378Y81630D01*
X131414Y81625D01*
X131455Y81616D01*
X131501Y81607D01*
X131555Y81598D01*
X131665Y81561D01*
X131719Y81534D01*
X131778Y81507D01*
X131837Y81470D01*
X131892Y81429D01*
X131947Y81384D01*
X132001Y81329D01*
X132006Y81325D01*
X132015Y81316D01*
X132029Y81297D01*
X132047Y81275D01*
X132065Y81243D01*
X132088Y81206D01*
X132115Y81161D01*
X132142Y81111D01*
X132165Y81052D01*
X132192Y80988D01*
X132215Y80915D01*
X132238Y80838D01*
X132252Y80756D01*
X132265Y80665D01*
X132274Y80569D01*
X132279Y80465D01*
Y80460D01*
Y80437D01*
Y80410D01*
X132274Y80369D01*
X132270Y80319D01*
X132265Y80265D01*
X132256Y80201D01*
X132243Y80133D01*
X132211Y79987D01*
X132188Y79914D01*
X132161Y79837D01*
X132129Y79764D01*
X132088Y79691D01*
X132047Y79628D01*
X131997Y79564D01*
X131992Y79559D01*
X131983Y79550D01*
X131969Y79537D01*
X131947Y79514D01*
X131919Y79491D01*
X131888Y79464D01*
X131851Y79436D01*
X131810Y79409D01*
X131760Y79377D01*
X131710Y79350D01*
X131592Y79300D01*
X131528Y79277D01*
X131464Y79264D01*
X131392Y79255D01*
X131319Y79250D01*
X131287D01*
X131246Y79255D01*
X131196Y79264D01*
X131137Y79273D01*
X131073Y79291D01*
X131005Y79314D01*
X130932Y79346D01*
X130923Y79350D01*
X130900Y79364D01*
X130864Y79387D01*
X130818Y79418D01*
X130768Y79459D01*
X130714Y79505D01*
X130659Y79564D01*
X130605Y79632D01*
Y79300D01*
X130045D01*
Y82449D01*
X130650D01*
Y81316D01*
D02*
G37*
G36*
X128612Y81630D02*
X128648D01*
X128739Y81621D01*
X128834Y81611D01*
X128935Y81593D01*
X129030Y81566D01*
X129071Y81552D01*
X129112Y81534D01*
X129117D01*
X129121Y81529D01*
X129144Y81516D01*
X129180Y81498D01*
X129221Y81470D01*
X129271Y81434D01*
X129317Y81393D01*
X129358Y81343D01*
X129394Y81293D01*
X129399Y81284D01*
X129408Y81266D01*
X129421Y81225D01*
X129426Y81202D01*
X129435Y81170D01*
X129444Y81138D01*
X129449Y81097D01*
X129458Y81052D01*
X129462Y81002D01*
X129467Y80947D01*
X129472Y80888D01*
X129476Y80824D01*
Y80751D01*
X129467Y80046D01*
Y80042D01*
Y80033D01*
Y80019D01*
Y79996D01*
Y79941D01*
X129472Y79878D01*
Y79805D01*
X129481Y79732D01*
X129485Y79659D01*
X129494Y79600D01*
Y79596D01*
X129499Y79577D01*
X129508Y79546D01*
X129517Y79509D01*
X129535Y79464D01*
X129553Y79414D01*
X129576Y79359D01*
X129604Y79300D01*
X129007D01*
Y79304D01*
X129003Y79309D01*
X128998Y79327D01*
X128989Y79346D01*
X128980Y79368D01*
X128971Y79400D01*
X128962Y79436D01*
X128948Y79477D01*
Y79482D01*
X128944Y79487D01*
X128939Y79505D01*
X128930Y79527D01*
X128926Y79546D01*
X128916Y79541D01*
X128898Y79523D01*
X128866Y79496D01*
X128825Y79464D01*
X128775Y79427D01*
X128721Y79387D01*
X128657Y79355D01*
X128593Y79323D01*
X128584Y79318D01*
X128561Y79314D01*
X128525Y79300D01*
X128480Y79286D01*
X128425Y79273D01*
X128361Y79264D01*
X128288Y79255D01*
X128216Y79250D01*
X128184D01*
X128157Y79255D01*
X128129D01*
X128093Y79259D01*
X128015Y79273D01*
X127925Y79295D01*
X127833Y79327D01*
X127743Y79373D01*
X127661Y79436D01*
Y79441D01*
X127652Y79446D01*
X127629Y79473D01*
X127597Y79514D01*
X127560Y79568D01*
X127524Y79637D01*
X127492Y79719D01*
X127470Y79814D01*
X127465Y79864D01*
X127460Y79919D01*
Y79928D01*
Y79951D01*
X127465Y79987D01*
X127474Y80033D01*
X127483Y80087D01*
X127497Y80142D01*
X127520Y80201D01*
X127551Y80260D01*
X127556Y80269D01*
X127570Y80287D01*
X127588Y80315D01*
X127620Y80347D01*
X127652Y80383D01*
X127697Y80424D01*
X127747Y80460D01*
X127806Y80492D01*
X127815Y80497D01*
X127838Y80506D01*
X127875Y80519D01*
X127929Y80542D01*
X127997Y80565D01*
X128079Y80588D01*
X128179Y80610D01*
X128288Y80633D01*
X128293D01*
X128307Y80638D01*
X128330Y80642D01*
X128357Y80647D01*
X128393Y80651D01*
X128434Y80660D01*
X128525Y80683D01*
X128621Y80706D01*
X128721Y80729D01*
X128807Y80756D01*
X128848Y80770D01*
X128880Y80783D01*
Y80842D01*
Y80852D01*
Y80870D01*
X128876Y80902D01*
X128871Y80943D01*
X128857Y80984D01*
X128844Y81024D01*
X128821Y81061D01*
X128789Y81093D01*
X128785Y81097D01*
X128771Y81106D01*
X128748Y81115D01*
X128716Y81134D01*
X128671Y81147D01*
X128616Y81156D01*
X128548Y81165D01*
X128466Y81170D01*
X128439D01*
X128411Y81165D01*
X128375Y81161D01*
X128334Y81152D01*
X128288Y81143D01*
X128248Y81125D01*
X128211Y81102D01*
X128207Y81097D01*
X128198Y81088D01*
X128179Y81075D01*
X128161Y81052D01*
X128134Y81020D01*
X128111Y80979D01*
X128088Y80933D01*
X128066Y80879D01*
X127524Y80979D01*
Y80984D01*
X127529Y80993D01*
X127533Y81011D01*
X127542Y81034D01*
X127551Y81061D01*
X127565Y81093D01*
X127597Y81165D01*
X127642Y81243D01*
X127697Y81325D01*
X127761Y81402D01*
X127838Y81470D01*
X127843D01*
X127847Y81479D01*
X127861Y81484D01*
X127879Y81498D01*
X127906Y81507D01*
X127934Y81520D01*
X127970Y81539D01*
X128006Y81552D01*
X128052Y81566D01*
X128102Y81584D01*
X128157Y81598D01*
X128220Y81607D01*
X128284Y81621D01*
X128357Y81625D01*
X128430Y81634D01*
X128580D01*
X128612Y81630D01*
D02*
G37*
G36*
X138535D02*
X138585Y81625D01*
X138640Y81616D01*
X138699Y81602D01*
X138763Y81584D01*
X138826Y81561D01*
X138835Y81557D01*
X138854Y81548D01*
X138885Y81534D01*
X138922Y81511D01*
X138963Y81484D01*
X139004Y81452D01*
X139045Y81416D01*
X139081Y81375D01*
X139086Y81370D01*
X139095Y81357D01*
X139108Y81334D01*
X139127Y81302D01*
X139149Y81266D01*
X139168Y81220D01*
X139186Y81175D01*
X139199Y81120D01*
Y81115D01*
X139204Y81093D01*
X139213Y81061D01*
X139218Y81015D01*
X139227Y80961D01*
X139231Y80888D01*
X139236Y80811D01*
Y80715D01*
Y79300D01*
X138631D01*
Y80460D01*
Y80465D01*
Y80478D01*
Y80497D01*
Y80519D01*
Y80551D01*
Y80583D01*
X138626Y80660D01*
X138622Y80738D01*
X138612Y80820D01*
X138603Y80888D01*
X138599Y80915D01*
X138590Y80938D01*
Y80943D01*
X138581Y80956D01*
X138572Y80974D01*
X138558Y81002D01*
X138517Y81056D01*
X138494Y81084D01*
X138462Y81106D01*
X138458Y81111D01*
X138449Y81115D01*
X138431Y81125D01*
X138403Y81138D01*
X138371Y81152D01*
X138339Y81161D01*
X138298Y81165D01*
X138253Y81170D01*
X138226D01*
X138198Y81165D01*
X138162Y81161D01*
X138117Y81147D01*
X138071Y81134D01*
X138021Y81111D01*
X137971Y81084D01*
X137966Y81079D01*
X137953Y81070D01*
X137930Y81047D01*
X137903Y81024D01*
X137875Y80988D01*
X137848Y80952D01*
X137821Y80902D01*
X137803Y80852D01*
Y80847D01*
X137794Y80824D01*
X137789Y80788D01*
X137780Y80733D01*
X137775Y80701D01*
X137771Y80660D01*
X137766Y80620D01*
Y80569D01*
X137762Y80519D01*
X137757Y80460D01*
Y80397D01*
Y80328D01*
Y79300D01*
X137152D01*
Y81584D01*
X137712D01*
Y81247D01*
X137716Y81252D01*
X137725Y81266D01*
X137743Y81284D01*
X137766Y81307D01*
X137794Y81338D01*
X137830Y81370D01*
X137871Y81407D01*
X137916Y81443D01*
X137966Y81475D01*
X138025Y81511D01*
X138085Y81543D01*
X138153Y81575D01*
X138226Y81598D01*
X138298Y81616D01*
X138380Y81630D01*
X138462Y81634D01*
X138494D01*
X138535Y81630D01*
D02*
G37*
G36*
X141224D02*
X141274Y81625D01*
X141329Y81616D01*
X141388Y81602D01*
X141452Y81584D01*
X141515Y81561D01*
X141525Y81557D01*
X141543Y81548D01*
X141575Y81534D01*
X141611Y81511D01*
X141652Y81484D01*
X141693Y81452D01*
X141734Y81416D01*
X141770Y81375D01*
X141775Y81370D01*
X141784Y81357D01*
X141797Y81334D01*
X141816Y81302D01*
X141838Y81266D01*
X141857Y81220D01*
X141875Y81175D01*
X141888Y81120D01*
Y81115D01*
X141893Y81093D01*
X141902Y81061D01*
X141907Y81015D01*
X141916Y80961D01*
X141920Y80888D01*
X141925Y80811D01*
Y80715D01*
Y79300D01*
X141320D01*
Y80460D01*
Y80465D01*
Y80478D01*
Y80497D01*
Y80519D01*
Y80551D01*
Y80583D01*
X141315Y80660D01*
X141311Y80738D01*
X141302Y80820D01*
X141292Y80888D01*
X141288Y80915D01*
X141279Y80938D01*
Y80943D01*
X141270Y80956D01*
X141261Y80974D01*
X141247Y81002D01*
X141206Y81056D01*
X141183Y81084D01*
X141151Y81106D01*
X141147Y81111D01*
X141138Y81115D01*
X141120Y81125D01*
X141092Y81138D01*
X141060Y81152D01*
X141028Y81161D01*
X140988Y81165D01*
X140942Y81170D01*
X140915D01*
X140887Y81165D01*
X140851Y81161D01*
X140806Y81147D01*
X140760Y81134D01*
X140710Y81111D01*
X140660Y81084D01*
X140655Y81079D01*
X140642Y81070D01*
X140619Y81047D01*
X140592Y81024D01*
X140564Y80988D01*
X140537Y80952D01*
X140510Y80902D01*
X140492Y80852D01*
Y80847D01*
X140482Y80824D01*
X140478Y80788D01*
X140469Y80733D01*
X140464Y80701D01*
X140460Y80660D01*
X140455Y80620D01*
Y80569D01*
X140451Y80519D01*
X140446Y80460D01*
Y80397D01*
Y80328D01*
Y79300D01*
X139841D01*
Y81584D01*
X140401D01*
Y81247D01*
X140405Y81252D01*
X140414Y81266D01*
X140433Y81284D01*
X140455Y81307D01*
X140482Y81338D01*
X140519Y81370D01*
X140560Y81407D01*
X140605Y81443D01*
X140655Y81475D01*
X140715Y81511D01*
X140774Y81543D01*
X140842Y81575D01*
X140915Y81598D01*
X140988Y81616D01*
X141069Y81630D01*
X141151Y81634D01*
X141183D01*
X141224Y81630D01*
D02*
G37*
G36*
X136538Y79300D02*
X135978D01*
Y79641D01*
X135974Y79632D01*
X135955Y79609D01*
X135928Y79577D01*
X135887Y79537D01*
X135842Y79487D01*
X135782Y79441D01*
X135719Y79391D01*
X135646Y79350D01*
X135637Y79346D01*
X135609Y79336D01*
X135568Y79318D01*
X135514Y79300D01*
X135450Y79282D01*
X135377Y79264D01*
X135300Y79255D01*
X135218Y79250D01*
X135177D01*
X135136Y79255D01*
X135082Y79264D01*
X135013Y79273D01*
X134945Y79291D01*
X134872Y79318D01*
X134804Y79350D01*
X134795Y79355D01*
X134777Y79368D01*
X134740Y79391D01*
X134704Y79423D01*
X134659Y79464D01*
X134618Y79509D01*
X134577Y79568D01*
X134540Y79632D01*
X134536Y79641D01*
X134527Y79664D01*
X134513Y79705D01*
X134499Y79764D01*
X134486Y79837D01*
X134472Y79923D01*
X134463Y80023D01*
X134458Y80137D01*
Y81584D01*
X135064D01*
Y80533D01*
Y80528D01*
Y80510D01*
Y80488D01*
Y80456D01*
Y80419D01*
Y80378D01*
X135068Y80283D01*
X135073Y80178D01*
X135077Y80083D01*
X135082Y80042D01*
X135086Y80001D01*
X135091Y79969D01*
X135095Y79946D01*
Y79941D01*
X135100Y79928D01*
X135109Y79910D01*
X135123Y79882D01*
X135136Y79855D01*
X135159Y79828D01*
X135182Y79800D01*
X135214Y79773D01*
X135218Y79769D01*
X135232Y79764D01*
X135250Y79755D01*
X135277Y79746D01*
X135309Y79732D01*
X135350Y79723D01*
X135391Y79719D01*
X135441Y79714D01*
X135468D01*
X135496Y79719D01*
X135532Y79723D01*
X135578Y79732D01*
X135623Y79751D01*
X135673Y79769D01*
X135719Y79796D01*
X135723Y79800D01*
X135737Y79810D01*
X135760Y79828D01*
X135787Y79855D01*
X135814Y79887D01*
X135842Y79919D01*
X135869Y79960D01*
X135887Y80005D01*
Y80010D01*
X135896Y80033D01*
Y80051D01*
X135901Y80073D01*
X135905Y80096D01*
X135910Y80128D01*
X135914Y80169D01*
X135919Y80210D01*
X135923Y80260D01*
Y80319D01*
X135928Y80383D01*
X135933Y80456D01*
Y80533D01*
Y80620D01*
Y81584D01*
X136538D01*
Y79300D01*
D02*
G37*
G36*
X121832D02*
X121195D01*
Y80679D01*
X119953D01*
Y79300D01*
X119316D01*
Y82449D01*
X119953D01*
Y81211D01*
X121195D01*
Y82449D01*
X121832D01*
Y79300D01*
D02*
G37*
G36*
X172784Y98000D02*
X172238D01*
X171319Y100284D01*
X171951D01*
X172384Y99115D01*
X172506Y98728D01*
X172511Y98733D01*
X172516Y98751D01*
X172525Y98778D01*
X172534Y98805D01*
X172556Y98874D01*
X172566Y98901D01*
X172570Y98924D01*
Y98928D01*
X172575Y98942D01*
X172579Y98960D01*
X172588Y98983D01*
X172607Y99046D01*
X172634Y99115D01*
X173071Y100284D01*
X173689D01*
X172784Y98000D01*
D02*
G37*
G36*
X167815Y103000D02*
X167128D01*
X166000Y106149D01*
X166687D01*
X167488Y103819D01*
X168257Y106149D01*
X168935D01*
X167815Y103000D01*
D02*
G37*
G36*
X172825Y105330D02*
X172875Y105321D01*
X172939Y105307D01*
X173007Y105284D01*
X173075Y105257D01*
X173148Y105216D01*
X172957Y104693D01*
X172952Y104697D01*
X172930Y104706D01*
X172902Y104725D01*
X172866Y104743D01*
X172820Y104761D01*
X172775Y104779D01*
X172725Y104788D01*
X172675Y104793D01*
X172657D01*
X172629Y104788D01*
X172602Y104784D01*
X172570Y104774D01*
X172534Y104761D01*
X172497Y104743D01*
X172461Y104720D01*
X172456Y104715D01*
X172447Y104706D01*
X172429Y104688D01*
X172411Y104661D01*
X172388Y104629D01*
X172365Y104583D01*
X172343Y104529D01*
X172325Y104465D01*
Y104456D01*
X172320Y104442D01*
X172315Y104429D01*
Y104406D01*
X172311Y104379D01*
X172306Y104342D01*
X172302Y104301D01*
X172297Y104256D01*
X172293Y104197D01*
X172288Y104138D01*
Y104065D01*
X172283Y103987D01*
X172279Y103901D01*
Y103805D01*
Y103701D01*
Y103000D01*
X171674D01*
Y105284D01*
X172233D01*
Y104961D01*
X172238Y104966D01*
X172256Y104993D01*
X172283Y105034D01*
X172320Y105084D01*
X172356Y105134D01*
X172402Y105184D01*
X172443Y105229D01*
X172488Y105261D01*
X172493Y105266D01*
X172506Y105275D01*
X172534Y105284D01*
X172566Y105298D01*
X172602Y105311D01*
X172648Y105325D01*
X172693Y105330D01*
X172748Y105334D01*
X172784D01*
X172825Y105330D01*
D02*
G37*
G36*
X178908Y103000D02*
X178303D01*
Y103605D01*
X178908D01*
Y103000D01*
D02*
G37*
G36*
X180942D02*
X180337D01*
Y105280D01*
X180333Y105275D01*
X180323Y105266D01*
X180305Y105252D01*
X180278Y105229D01*
X180246Y105202D01*
X180210Y105175D01*
X180164Y105143D01*
X180114Y105107D01*
X180060Y105070D01*
X180000Y105034D01*
X179937Y104993D01*
X179868Y104956D01*
X179723Y104888D01*
X179559Y104824D01*
Y105371D01*
X179564D01*
X179568Y105375D01*
X179582Y105380D01*
X179600Y105384D01*
X179646Y105407D01*
X179709Y105434D01*
X179787Y105471D01*
X179873Y105521D01*
X179969Y105584D01*
X180069Y105657D01*
X180073Y105662D01*
X180082Y105666D01*
X180096Y105680D01*
X180114Y105698D01*
X180164Y105744D01*
X180219Y105803D01*
X180282Y105876D01*
X180346Y105967D01*
X180405Y106062D01*
X180451Y106167D01*
X180942D01*
Y103000D01*
D02*
G37*
G36*
X50000Y160000D02*
Y175000D01*
X65000D01*
X50000Y160000D01*
D02*
G37*
G36*
X195000Y160000D02*
X180000Y175000D01*
X195000D01*
Y160000D01*
D02*
G37*
G36*
X65000Y50000D02*
X50000D01*
Y65000D01*
X65000Y50000D01*
D02*
G37*
G36*
X195000D02*
X180000D01*
X195000Y65000D01*
Y50000D01*
D02*
G37*
G36*
X176843Y106162D02*
X176884Y106158D01*
X176929Y106153D01*
X176979Y106144D01*
X177034Y106135D01*
X177152Y106103D01*
X177270Y106058D01*
X177334Y106030D01*
X177389Y105999D01*
X177448Y105957D01*
X177498Y105912D01*
X177502Y105907D01*
X177512Y105903D01*
X177521Y105885D01*
X177539Y105867D01*
X177562Y105844D01*
X177584Y105812D01*
X177607Y105780D01*
X177634Y105739D01*
X177680Y105648D01*
X177725Y105543D01*
X177744Y105484D01*
X177753Y105421D01*
X177762Y105352D01*
X177766Y105284D01*
Y105275D01*
Y105248D01*
X177762Y105207D01*
X177757Y105157D01*
X177748Y105093D01*
X177734Y105025D01*
X177716Y104952D01*
X177689Y104879D01*
X177684Y104870D01*
X177675Y104847D01*
X177657Y104806D01*
X177630Y104756D01*
X177598Y104697D01*
X177557Y104629D01*
X177507Y104556D01*
X177448Y104479D01*
X177443Y104474D01*
X177425Y104451D01*
X177398Y104420D01*
X177357Y104374D01*
X177302Y104320D01*
X177234Y104247D01*
X177152Y104169D01*
X177052Y104074D01*
X177047Y104069D01*
X177038Y104065D01*
X177025Y104051D01*
X177006Y104033D01*
X176956Y103987D01*
X176897Y103933D01*
X176838Y103874D01*
X176779Y103814D01*
X176724Y103764D01*
X176706Y103742D01*
X176688Y103724D01*
X176683Y103719D01*
X176674Y103710D01*
X176661Y103692D01*
X176643Y103669D01*
X176602Y103619D01*
X176565Y103560D01*
X177766D01*
Y103000D01*
X175651D01*
Y103005D01*
Y103014D01*
X175655Y103032D01*
X175660Y103055D01*
X175664Y103082D01*
X175669Y103114D01*
X175687Y103196D01*
X175714Y103287D01*
X175751Y103387D01*
X175796Y103496D01*
X175855Y103601D01*
Y103605D01*
X175864Y103614D01*
X175873Y103632D01*
X175892Y103651D01*
X175910Y103682D01*
X175937Y103714D01*
X175969Y103755D01*
X176005Y103801D01*
X176046Y103855D01*
X176096Y103910D01*
X176151Y103974D01*
X176215Y104042D01*
X176283Y104110D01*
X176360Y104188D01*
X176442Y104270D01*
X176533Y104356D01*
X176538Y104360D01*
X176551Y104374D01*
X176570Y104392D01*
X176597Y104420D01*
X176633Y104447D01*
X176670Y104483D01*
X176752Y104565D01*
X176833Y104652D01*
X176916Y104738D01*
X176952Y104774D01*
X176988Y104815D01*
X177016Y104847D01*
X177034Y104875D01*
X177038Y104884D01*
X177052Y104906D01*
X177075Y104943D01*
X177097Y104993D01*
X177120Y105048D01*
X177143Y105111D01*
X177157Y105175D01*
X177161Y105243D01*
Y105248D01*
Y105252D01*
Y105275D01*
X177157Y105316D01*
X177147Y105361D01*
X177134Y105412D01*
X177116Y105462D01*
X177088Y105512D01*
X177052Y105557D01*
X177047Y105562D01*
X177034Y105575D01*
X177006Y105594D01*
X176975Y105612D01*
X176929Y105630D01*
X176879Y105648D01*
X176820Y105662D01*
X176752Y105666D01*
X176720D01*
X176683Y105662D01*
X176643Y105653D01*
X176592Y105639D01*
X176542Y105616D01*
X176492Y105589D01*
X176447Y105552D01*
X176442Y105548D01*
X176429Y105530D01*
X176410Y105502D01*
X176392Y105462D01*
X176370Y105412D01*
X176351Y105343D01*
X176333Y105266D01*
X176324Y105175D01*
X175723Y105234D01*
Y105239D01*
X175728Y105257D01*
Y105280D01*
X175737Y105316D01*
X175742Y105357D01*
X175755Y105402D01*
X175769Y105452D01*
X175783Y105512D01*
X175828Y105625D01*
X175883Y105744D01*
X175919Y105803D01*
X175960Y105857D01*
X176005Y105903D01*
X176056Y105948D01*
X176060Y105953D01*
X176069Y105957D01*
X176083Y105967D01*
X176105Y105985D01*
X176133Y105999D01*
X176169Y106017D01*
X176206Y106039D01*
X176251Y106058D01*
X176301Y106080D01*
X176356Y106099D01*
X176474Y106135D01*
X176615Y106158D01*
X176688Y106162D01*
X176765Y106167D01*
X176811D01*
X176843Y106162D01*
D02*
G37*
G36*
X183172Y100330D02*
X183208D01*
X183249Y100325D01*
X183295Y100320D01*
X183345Y100311D01*
X183449Y100289D01*
X183558Y100257D01*
X183668Y100211D01*
X183768Y100152D01*
X183772D01*
X183777Y100143D01*
X183791Y100134D01*
X183809Y100120D01*
X183850Y100079D01*
X183904Y100020D01*
X183963Y99943D01*
X184023Y99852D01*
X184077Y99743D01*
X184123Y99615D01*
X183527Y99506D01*
Y99515D01*
X183522Y99533D01*
X183513Y99565D01*
X183499Y99606D01*
X183476Y99647D01*
X183454Y99693D01*
X183422Y99734D01*
X183386Y99770D01*
X183381Y99774D01*
X183367Y99784D01*
X183345Y99797D01*
X183313Y99815D01*
X183272Y99834D01*
X183226Y99847D01*
X183172Y99856D01*
X183113Y99861D01*
X183103D01*
X183076Y99856D01*
X183035Y99852D01*
X182981Y99843D01*
X182926Y99820D01*
X182867Y99793D01*
X182808Y99756D01*
X182753Y99702D01*
X182749Y99693D01*
X182735Y99670D01*
X182712Y99634D01*
X182689Y99579D01*
X182662Y99506D01*
X182653Y99465D01*
X182644Y99420D01*
X182635Y99365D01*
X182626Y99310D01*
X182621Y99247D01*
Y99183D01*
Y99178D01*
Y99165D01*
Y99142D01*
X182626Y99115D01*
Y99083D01*
X182630Y99046D01*
X182639Y98956D01*
X182653Y98860D01*
X182680Y98764D01*
X182712Y98678D01*
X182735Y98642D01*
X182758Y98605D01*
X182762Y98596D01*
X182785Y98578D01*
X182812Y98555D01*
X182853Y98523D01*
X182908Y98491D01*
X182967Y98469D01*
X183040Y98450D01*
X183122Y98441D01*
X183149D01*
X183181Y98446D01*
X183222Y98455D01*
X183267Y98464D01*
X183313Y98482D01*
X183358Y98505D01*
X183404Y98537D01*
X183408Y98541D01*
X183422Y98555D01*
X183440Y98578D01*
X183467Y98614D01*
X183495Y98660D01*
X183518Y98719D01*
X183545Y98792D01*
X183563Y98874D01*
X184154Y98773D01*
Y98769D01*
X184150Y98755D01*
X184145Y98733D01*
X184136Y98705D01*
X184123Y98673D01*
X184109Y98632D01*
X184073Y98541D01*
X184027Y98441D01*
X183963Y98341D01*
X183886Y98241D01*
X183841Y98196D01*
X183795Y98155D01*
X183791D01*
X183781Y98146D01*
X183768Y98137D01*
X183749Y98123D01*
X183722Y98109D01*
X183690Y98091D01*
X183654Y98073D01*
X183608Y98055D01*
X183563Y98032D01*
X183508Y98014D01*
X183454Y97996D01*
X183390Y97982D01*
X183322Y97968D01*
X183249Y97959D01*
X183176Y97954D01*
X183094Y97950D01*
X183044D01*
X183012Y97954D01*
X182972Y97959D01*
X182922Y97968D01*
X182867Y97977D01*
X182808Y97991D01*
X182744Y98005D01*
X182680Y98027D01*
X182612Y98050D01*
X182548Y98082D01*
X182480Y98118D01*
X182416Y98159D01*
X182357Y98209D01*
X182298Y98264D01*
X182294Y98268D01*
X182284Y98277D01*
X182271Y98296D01*
X182253Y98323D01*
X182230Y98355D01*
X182202Y98391D01*
X182180Y98437D01*
X182152Y98491D01*
X182121Y98550D01*
X182098Y98614D01*
X182071Y98687D01*
X182048Y98764D01*
X182030Y98851D01*
X182016Y98937D01*
X182007Y99037D01*
X182002Y99138D01*
Y99142D01*
Y99160D01*
Y99192D01*
X182007Y99229D01*
X182011Y99278D01*
X182016Y99333D01*
X182025Y99392D01*
X182039Y99461D01*
X182075Y99602D01*
X182098Y99674D01*
X182125Y99747D01*
X182162Y99820D01*
X182202Y99888D01*
X182248Y99952D01*
X182298Y100016D01*
X182303Y100020D01*
X182312Y100029D01*
X182330Y100043D01*
X182353Y100066D01*
X182385Y100089D01*
X182421Y100116D01*
X182462Y100148D01*
X182512Y100175D01*
X182567Y100207D01*
X182626Y100234D01*
X182694Y100261D01*
X182767Y100284D01*
X182840Y100307D01*
X182926Y100320D01*
X183012Y100330D01*
X183103Y100334D01*
X183144D01*
X183172Y100330D01*
D02*
G37*
G36*
X167593Y99920D02*
X168844Y98000D01*
X168020D01*
X167151Y99479D01*
X166637Y98951D01*
Y98000D01*
X166000D01*
Y101149D01*
X166637D01*
Y99747D01*
X167929Y101149D01*
X168785D01*
X167593Y99920D01*
D02*
G37*
G36*
X176665Y100330D02*
X176715Y100325D01*
X176770Y100316D01*
X176829Y100302D01*
X176893Y100284D01*
X176956Y100261D01*
X176965Y100257D01*
X176984Y100248D01*
X177016Y100234D01*
X177052Y100211D01*
X177093Y100184D01*
X177134Y100152D01*
X177175Y100116D01*
X177211Y100075D01*
X177216Y100070D01*
X177225Y100057D01*
X177239Y100034D01*
X177257Y100002D01*
X177279Y99966D01*
X177298Y99920D01*
X177316Y99875D01*
X177330Y99820D01*
Y99815D01*
X177334Y99793D01*
X177343Y99761D01*
X177348Y99715D01*
X177357Y99661D01*
X177361Y99588D01*
X177366Y99511D01*
Y99415D01*
Y98000D01*
X176761D01*
Y99160D01*
Y99165D01*
Y99178D01*
Y99197D01*
Y99219D01*
Y99251D01*
Y99283D01*
X176756Y99361D01*
X176752Y99438D01*
X176743Y99520D01*
X176733Y99588D01*
X176729Y99615D01*
X176720Y99638D01*
Y99643D01*
X176711Y99656D01*
X176702Y99674D01*
X176688Y99702D01*
X176647Y99756D01*
X176624Y99784D01*
X176592Y99806D01*
X176588Y99811D01*
X176579Y99815D01*
X176560Y99825D01*
X176533Y99838D01*
X176501Y99852D01*
X176470Y99861D01*
X176429Y99866D01*
X176383Y99870D01*
X176356D01*
X176329Y99866D01*
X176292Y99861D01*
X176247Y99847D01*
X176201Y99834D01*
X176151Y99811D01*
X176101Y99784D01*
X176096Y99779D01*
X176083Y99770D01*
X176060Y99747D01*
X176033Y99725D01*
X176005Y99688D01*
X175978Y99652D01*
X175951Y99602D01*
X175933Y99551D01*
Y99547D01*
X175924Y99524D01*
X175919Y99488D01*
X175910Y99433D01*
X175905Y99401D01*
X175901Y99361D01*
X175896Y99319D01*
Y99269D01*
X175892Y99219D01*
X175887Y99160D01*
Y99097D01*
Y99028D01*
Y98000D01*
X175282D01*
Y100284D01*
X175842D01*
Y99947D01*
X175846Y99952D01*
X175855Y99966D01*
X175873Y99984D01*
X175896Y100007D01*
X175924Y100038D01*
X175960Y100070D01*
X176001Y100107D01*
X176046Y100143D01*
X176096Y100175D01*
X176156Y100211D01*
X176215Y100243D01*
X176283Y100275D01*
X176356Y100298D01*
X176429Y100316D01*
X176511Y100330D01*
X176592Y100334D01*
X176624D01*
X176665Y100330D01*
D02*
G37*
G36*
X180401Y101203D02*
X180451Y101199D01*
X180510Y101194D01*
X180569Y101185D01*
X180637Y101176D01*
X180783Y101144D01*
X180856Y101121D01*
X180929Y101099D01*
X181001Y101067D01*
X181070Y101030D01*
X181133Y100989D01*
X181193Y100944D01*
X181197Y100939D01*
X181206Y100930D01*
X181220Y100917D01*
X181238Y100898D01*
X181261Y100871D01*
X181288Y100839D01*
X181315Y100803D01*
X181347Y100762D01*
X181375Y100712D01*
X181402Y100662D01*
X181429Y100603D01*
X181452Y100539D01*
X181474Y100475D01*
X181493Y100402D01*
X181506Y100330D01*
X181511Y100248D01*
X180874Y100225D01*
Y100230D01*
Y100234D01*
X180865Y100266D01*
X180856Y100307D01*
X180838Y100357D01*
X180815Y100416D01*
X180783Y100471D01*
X180742Y100525D01*
X180696Y100571D01*
X180692Y100575D01*
X180674Y100589D01*
X180642Y100607D01*
X180596Y100625D01*
X180542Y100644D01*
X180474Y100662D01*
X180392Y100675D01*
X180296Y100680D01*
X180251D01*
X180201Y100675D01*
X180141Y100666D01*
X180073Y100653D01*
X180000Y100630D01*
X179932Y100603D01*
X179868Y100562D01*
X179864Y100557D01*
X179855Y100548D01*
X179837Y100534D01*
X179818Y100512D01*
X179800Y100484D01*
X179782Y100448D01*
X179773Y100411D01*
X179768Y100366D01*
Y100362D01*
Y100348D01*
X179773Y100325D01*
X179782Y100302D01*
X179791Y100270D01*
X179805Y100239D01*
X179827Y100207D01*
X179859Y100175D01*
X179864Y100170D01*
X179887Y100157D01*
X179900Y100148D01*
X179923Y100138D01*
X179946Y100125D01*
X179978Y100111D01*
X180014Y100098D01*
X180055Y100079D01*
X180105Y100061D01*
X180155Y100043D01*
X180219Y100025D01*
X180287Y100007D01*
X180360Y99988D01*
X180442Y99966D01*
X180446D01*
X180464Y99961D01*
X180487Y99957D01*
X180519Y99947D01*
X180555Y99938D01*
X180601Y99925D01*
X180651Y99911D01*
X180701Y99897D01*
X180810Y99861D01*
X180924Y99825D01*
X181033Y99784D01*
X181079Y99761D01*
X181124Y99738D01*
X181129D01*
X181133Y99734D01*
X181161Y99715D01*
X181202Y99688D01*
X181252Y99652D01*
X181306Y99606D01*
X181365Y99551D01*
X181424Y99488D01*
X181474Y99415D01*
X181479Y99406D01*
X181493Y99379D01*
X181516Y99338D01*
X181538Y99278D01*
X181561Y99206D01*
X181584Y99119D01*
X181597Y99024D01*
X181602Y98914D01*
Y98910D01*
Y98901D01*
Y98887D01*
Y98869D01*
X181597Y98846D01*
X181593Y98814D01*
X181584Y98751D01*
X181566Y98669D01*
X181538Y98582D01*
X181497Y98496D01*
X181447Y98405D01*
Y98400D01*
X181438Y98396D01*
X181420Y98369D01*
X181384Y98323D01*
X181338Y98273D01*
X181279Y98214D01*
X181202Y98159D01*
X181120Y98105D01*
X181020Y98055D01*
X181015D01*
X181006Y98050D01*
X180992Y98045D01*
X180970Y98036D01*
X180942Y98027D01*
X180910Y98018D01*
X180874Y98009D01*
X180833Y98000D01*
X180783Y97986D01*
X180733Y97977D01*
X180615Y97959D01*
X180483Y97945D01*
X180337Y97941D01*
X180278D01*
X180237Y97945D01*
X180187Y97950D01*
X180132Y97954D01*
X180069Y97964D01*
X180000Y97977D01*
X179850Y98009D01*
X179773Y98032D01*
X179700Y98055D01*
X179623Y98087D01*
X179550Y98123D01*
X179482Y98164D01*
X179418Y98214D01*
X179413Y98218D01*
X179404Y98228D01*
X179386Y98241D01*
X179368Y98264D01*
X179341Y98296D01*
X179313Y98332D01*
X179281Y98373D01*
X179250Y98419D01*
X179218Y98473D01*
X179186Y98532D01*
X179154Y98601D01*
X179122Y98673D01*
X179100Y98751D01*
X179072Y98837D01*
X179054Y98928D01*
X179040Y99024D01*
X179659Y99083D01*
Y99078D01*
X179664Y99069D01*
Y99051D01*
X179668Y99033D01*
X179686Y98978D01*
X179709Y98910D01*
X179736Y98833D01*
X179777Y98755D01*
X179823Y98687D01*
X179882Y98623D01*
X179891Y98619D01*
X179914Y98601D01*
X179950Y98578D01*
X180005Y98550D01*
X180073Y98523D01*
X180150Y98501D01*
X180242Y98482D01*
X180346Y98478D01*
X180396D01*
X180451Y98487D01*
X180519Y98496D01*
X180592Y98510D01*
X180669Y98532D01*
X180742Y98564D01*
X180806Y98605D01*
X180815Y98610D01*
X180833Y98628D01*
X180856Y98655D01*
X180888Y98692D01*
X180915Y98737D01*
X180942Y98792D01*
X180960Y98846D01*
X180965Y98910D01*
Y98914D01*
Y98928D01*
X180960Y98951D01*
X180956Y98978D01*
X180947Y99006D01*
X180938Y99037D01*
X180920Y99069D01*
X180897Y99101D01*
X180892Y99106D01*
X180883Y99115D01*
X180869Y99128D01*
X180847Y99147D01*
X180815Y99169D01*
X180774Y99192D01*
X180728Y99215D01*
X180669Y99238D01*
X180665D01*
X180647Y99247D01*
X180615Y99256D01*
X180592Y99265D01*
X180565Y99269D01*
X180533Y99278D01*
X180496Y99292D01*
X180455Y99301D01*
X180410Y99315D01*
X180355Y99329D01*
X180296Y99342D01*
X180232Y99361D01*
X180160Y99379D01*
X180155D01*
X180137Y99383D01*
X180110Y99392D01*
X180078Y99401D01*
X180037Y99415D01*
X179987Y99429D01*
X179937Y99447D01*
X179877Y99465D01*
X179759Y99511D01*
X179646Y99565D01*
X179586Y99593D01*
X179536Y99624D01*
X179486Y99656D01*
X179445Y99688D01*
X179441Y99693D01*
X179432Y99702D01*
X179418Y99715D01*
X179400Y99734D01*
X179377Y99761D01*
X179354Y99793D01*
X179327Y99825D01*
X179304Y99866D01*
X179250Y99961D01*
X179204Y100070D01*
X179186Y100129D01*
X179172Y100189D01*
X179163Y100257D01*
X179159Y100325D01*
Y100330D01*
Y100334D01*
Y100348D01*
Y100366D01*
X179168Y100411D01*
X179177Y100471D01*
X179191Y100539D01*
X179213Y100616D01*
X179245Y100698D01*
X179291Y100776D01*
Y100780D01*
X179295Y100785D01*
X179318Y100812D01*
X179345Y100848D01*
X179391Y100894D01*
X179445Y100944D01*
X179514Y100998D01*
X179591Y101049D01*
X179682Y101094D01*
X179686D01*
X179695Y101099D01*
X179709Y101103D01*
X179727Y101112D01*
X179755Y101121D01*
X179782Y101130D01*
X179818Y101139D01*
X179859Y101153D01*
X179950Y101171D01*
X180055Y101189D01*
X180173Y101203D01*
X180305Y101208D01*
X180360D01*
X180401Y101203D01*
D02*
G37*
G36*
X174013Y103000D02*
X173407D01*
Y103605D01*
X174013D01*
Y103000D01*
D02*
G37*
G36*
X170204Y105330D02*
X170245Y105325D01*
X170295Y105316D01*
X170350Y105307D01*
X170409Y105293D01*
X170473Y105275D01*
X170536Y105252D01*
X170605Y105225D01*
X170673Y105189D01*
X170737Y105152D01*
X170800Y105107D01*
X170864Y105052D01*
X170919Y104993D01*
X170923Y104988D01*
X170932Y104979D01*
X170946Y104956D01*
X170964Y104929D01*
X170987Y104893D01*
X171010Y104852D01*
X171037Y104797D01*
X171064Y104738D01*
X171091Y104670D01*
X171119Y104593D01*
X171142Y104511D01*
X171164Y104415D01*
X171182Y104315D01*
X171196Y104206D01*
X171205Y104092D01*
Y103965D01*
X169695D01*
Y103960D01*
Y103951D01*
Y103937D01*
X169699Y103919D01*
X169704Y103874D01*
X169713Y103810D01*
X169731Y103746D01*
X169758Y103673D01*
X169790Y103605D01*
X169836Y103546D01*
X169840Y103542D01*
X169863Y103523D01*
X169890Y103500D01*
X169931Y103473D01*
X169981Y103446D01*
X170045Y103423D01*
X170113Y103405D01*
X170186Y103400D01*
X170209D01*
X170236Y103405D01*
X170268Y103410D01*
X170304Y103419D01*
X170345Y103432D01*
X170386Y103451D01*
X170423Y103478D01*
X170427Y103482D01*
X170441Y103491D01*
X170459Y103510D01*
X170477Y103537D01*
X170504Y103573D01*
X170527Y103614D01*
X170550Y103669D01*
X170573Y103728D01*
X171173Y103628D01*
Y103623D01*
X171169Y103614D01*
X171160Y103596D01*
X171151Y103573D01*
X171137Y103546D01*
X171123Y103514D01*
X171082Y103441D01*
X171032Y103359D01*
X170969Y103273D01*
X170891Y103196D01*
X170805Y103123D01*
X170800D01*
X170796Y103114D01*
X170777Y103109D01*
X170759Y103096D01*
X170737Y103082D01*
X170705Y103068D01*
X170673Y103055D01*
X170632Y103036D01*
X170541Y103005D01*
X170436Y102977D01*
X170313Y102959D01*
X170181Y102950D01*
X170154D01*
X170127Y102954D01*
X170086D01*
X170036Y102964D01*
X169977Y102973D01*
X169913Y102982D01*
X169849Y103000D01*
X169776Y103018D01*
X169704Y103045D01*
X169631Y103077D01*
X169558Y103114D01*
X169485Y103159D01*
X169417Y103209D01*
X169358Y103269D01*
X169299Y103337D01*
X169294Y103341D01*
X169290Y103350D01*
X169281Y103369D01*
X169262Y103391D01*
X169249Y103423D01*
X169230Y103460D01*
X169208Y103500D01*
X169190Y103551D01*
X169167Y103605D01*
X169149Y103664D01*
X169126Y103728D01*
X169112Y103801D01*
X169099Y103874D01*
X169085Y103951D01*
X169080Y104037D01*
X169076Y104124D01*
Y104128D01*
Y104147D01*
Y104178D01*
X169080Y104219D01*
X169085Y104265D01*
X169089Y104320D01*
X169099Y104379D01*
X169112Y104447D01*
X169149Y104588D01*
X169171Y104661D01*
X169199Y104738D01*
X169235Y104811D01*
X169276Y104879D01*
X169322Y104947D01*
X169372Y105011D01*
X169376Y105016D01*
X169385Y105025D01*
X169403Y105043D01*
X169426Y105061D01*
X169453Y105084D01*
X169490Y105111D01*
X169531Y105143D01*
X169576Y105175D01*
X169626Y105202D01*
X169685Y105234D01*
X169745Y105261D01*
X169813Y105284D01*
X169881Y105302D01*
X169958Y105321D01*
X170036Y105330D01*
X170118Y105334D01*
X170168D01*
X170204Y105330D01*
D02*
G37*
G36*
X174668Y100589D02*
X174063D01*
Y101149D01*
X174668D01*
Y100589D01*
D02*
G37*
%LPC*%
G36*
X170072Y99870D02*
X170040D01*
X170004Y99861D01*
X169958Y99852D01*
X169908Y99834D01*
X169854Y99811D01*
X169799Y99774D01*
X169749Y99725D01*
X169745Y99720D01*
X169731Y99697D01*
X169708Y99665D01*
X169685Y99620D01*
X169658Y99565D01*
X169640Y99497D01*
X169626Y99420D01*
X169622Y99333D01*
X170523D01*
Y99338D01*
Y99347D01*
Y99356D01*
X170518Y99374D01*
X170514Y99424D01*
X170504Y99479D01*
X170486Y99542D01*
X170464Y99611D01*
X170427Y99674D01*
X170386Y99729D01*
X170382Y99734D01*
X170363Y99752D01*
X170336Y99774D01*
X170300Y99802D01*
X170254Y99825D01*
X170200Y99847D01*
X170141Y99866D01*
X170072Y99870D01*
D02*
G37*
G36*
X131150Y81170D02*
X131141D01*
X131114Y81165D01*
X131073Y81161D01*
X131023Y81147D01*
X130964Y81129D01*
X130900Y81097D01*
X130841Y81056D01*
X130782Y81002D01*
X130777Y80993D01*
X130759Y80970D01*
X130736Y80929D01*
X130714Y80874D01*
X130686Y80801D01*
X130664Y80715D01*
X130645Y80610D01*
X130641Y80488D01*
Y80483D01*
Y80474D01*
Y80456D01*
Y80428D01*
X130645Y80401D01*
Y80365D01*
X130655Y80287D01*
X130668Y80205D01*
X130686Y80119D01*
X130714Y80037D01*
X130750Y79964D01*
Y79960D01*
X130759Y79955D01*
X130777Y79928D01*
X130814Y79892D01*
X130864Y79846D01*
X130923Y79800D01*
X130996Y79764D01*
X131078Y79737D01*
X131123Y79732D01*
X131173Y79728D01*
X131182D01*
X131205Y79732D01*
X131246Y79737D01*
X131291Y79751D01*
X131346Y79769D01*
X131401Y79800D01*
X131460Y79841D01*
X131515Y79896D01*
X131519Y79905D01*
X131537Y79928D01*
X131560Y79969D01*
X131587Y80028D01*
X131615Y80101D01*
X131637Y80192D01*
X131646Y80246D01*
X131656Y80306D01*
X131660Y80365D01*
Y80433D01*
Y80437D01*
Y80451D01*
Y80469D01*
Y80497D01*
X131656Y80528D01*
X131651Y80565D01*
X131642Y80651D01*
X131624Y80742D01*
X131601Y80838D01*
X131564Y80924D01*
X131542Y80961D01*
X131515Y80997D01*
X131510Y81006D01*
X131487Y81024D01*
X131460Y81052D01*
X131414Y81084D01*
X131364Y81115D01*
X131301Y81143D01*
X131232Y81161D01*
X131150Y81170D01*
D02*
G37*
G36*
X123525Y81143D02*
X123502D01*
X123484Y81138D01*
X123443Y81134D01*
X123388Y81120D01*
X123325Y81097D01*
X123256Y81065D01*
X123188Y81020D01*
X123124Y80961D01*
X123120Y80952D01*
X123101Y80929D01*
X123074Y80883D01*
X123047Y80829D01*
X123015Y80756D01*
X122992Y80665D01*
X122974Y80560D01*
X122965Y80442D01*
Y80437D01*
Y80428D01*
Y80410D01*
X122970Y80388D01*
Y80356D01*
X122974Y80324D01*
X122983Y80251D01*
X123006Y80164D01*
X123033Y80078D01*
X123070Y79992D01*
X123124Y79919D01*
X123133Y79910D01*
X123152Y79892D01*
X123188Y79864D01*
X123238Y79832D01*
X123293Y79796D01*
X123361Y79769D01*
X123438Y79751D01*
X123525Y79741D01*
X123547D01*
X123566Y79746D01*
X123607Y79751D01*
X123661Y79764D01*
X123725Y79787D01*
X123793Y79814D01*
X123857Y79860D01*
X123921Y79919D01*
X123930Y79928D01*
X123948Y79951D01*
X123971Y79996D01*
X124002Y80051D01*
X124034Y80128D01*
X124057Y80215D01*
X124075Y80324D01*
X124084Y80442D01*
Y80447D01*
Y80456D01*
Y80474D01*
X124080Y80497D01*
Y80524D01*
X124075Y80560D01*
X124066Y80633D01*
X124043Y80715D01*
X124016Y80801D01*
X123975Y80888D01*
X123921Y80961D01*
X123911Y80970D01*
X123893Y80988D01*
X123857Y81020D01*
X123811Y81052D01*
X123752Y81084D01*
X123688Y81115D01*
X123611Y81134D01*
X123525Y81143D01*
D02*
G37*
G36*
X128880Y80392D02*
X128876D01*
X128857Y80383D01*
X128830Y80378D01*
X128789Y80365D01*
X128739Y80351D01*
X128671Y80333D01*
X128598Y80315D01*
X128507Y80296D01*
X128498D01*
X128484Y80292D01*
X128466Y80287D01*
X128425Y80278D01*
X128370Y80265D01*
X128316Y80251D01*
X128261Y80233D01*
X128216Y80210D01*
X128179Y80192D01*
X128175Y80187D01*
X128161Y80178D01*
X128143Y80160D01*
X128125Y80137D01*
X128102Y80105D01*
X128084Y80069D01*
X128070Y80028D01*
X128066Y79983D01*
Y79978D01*
Y79960D01*
X128070Y79937D01*
X128079Y79910D01*
X128088Y79873D01*
X128102Y79837D01*
X128125Y79800D01*
X128157Y79764D01*
X128161Y79760D01*
X128175Y79751D01*
X128193Y79737D01*
X128225Y79719D01*
X128257Y79700D01*
X128298Y79687D01*
X128348Y79678D01*
X128398Y79673D01*
X128425D01*
X128457Y79678D01*
X128498Y79687D01*
X128548Y79700D01*
X128598Y79719D01*
X128657Y79741D01*
X128712Y79778D01*
X128716Y79782D01*
X128730Y79791D01*
X128748Y79810D01*
X128771Y79832D01*
X128794Y79864D01*
X128816Y79896D01*
X128839Y79937D01*
X128853Y79978D01*
Y79983D01*
X128857Y79992D01*
X128862Y80014D01*
X128866Y80042D01*
X128871Y80083D01*
X128876Y80133D01*
X128880Y80196D01*
Y80269D01*
Y80392D01*
D02*
G37*
G36*
X170154Y104870D02*
X170122D01*
X170086Y104861D01*
X170040Y104852D01*
X169990Y104834D01*
X169936Y104811D01*
X169881Y104774D01*
X169831Y104725D01*
X169826Y104720D01*
X169813Y104697D01*
X169790Y104665D01*
X169767Y104620D01*
X169740Y104565D01*
X169722Y104497D01*
X169708Y104420D01*
X169704Y104333D01*
X170605D01*
Y104338D01*
Y104347D01*
Y104356D01*
X170600Y104374D01*
X170596Y104424D01*
X170586Y104479D01*
X170568Y104543D01*
X170545Y104611D01*
X170509Y104674D01*
X170468Y104729D01*
X170464Y104734D01*
X170445Y104752D01*
X170418Y104774D01*
X170382Y104802D01*
X170336Y104824D01*
X170282Y104847D01*
X170222Y104866D01*
X170154Y104870D01*
D02*
G37*
%LPD*%
D26*
X115748Y90847D02*
G03*
X115748Y90847I-984J0D01*
G01*
X107874Y95768D02*
G03*
X107874Y95768I-984J0D01*
G01*
X89567Y92421D02*
X110433D01*
X89567Y132579D02*
X110433D01*
Y92421D02*
Y132579D01*
X89567Y92421D02*
Y132579D01*
D27*
X131083Y137421D02*
G03*
X131083Y137421I-492J0D01*
G01*
D28*
X119902Y136900D02*
Y143200D01*
Y144800D02*
Y151100D01*
X127302Y144800D02*
Y151100D01*
Y136900D02*
Y143200D01*
X119902Y151100D02*
X127302D01*
X119902Y136900D02*
X127302D01*
X86300Y73900D02*
Y80200D01*
Y81800D02*
Y88100D01*
X93700Y81800D02*
Y88100D01*
Y73900D02*
Y80200D01*
X86300Y88100D02*
X93700D01*
X86300Y73900D02*
X93700D01*
X96300D02*
Y80200D01*
Y81800D02*
Y88100D01*
X103700Y81800D02*
Y88100D01*
Y73900D02*
Y80200D01*
X96300Y88100D02*
X103700D01*
X96300Y73900D02*
X103700D01*
X65060D02*
Y80200D01*
Y81800D02*
Y88100D01*
X72460Y81800D02*
Y88100D01*
Y73900D02*
Y80200D01*
X65060Y88100D02*
X72460D01*
X65060Y73900D02*
X72460D01*
X115098Y144800D02*
Y151100D01*
Y136900D02*
Y143200D01*
X107698Y136900D02*
Y143200D01*
Y144800D02*
Y151100D01*
Y136900D02*
X115098D01*
X107698Y151100D02*
X115098D01*
X93300Y156300D02*
X99600D01*
X85400D02*
X91700D01*
X85400Y163700D02*
X91700D01*
X93300D02*
X99600D01*
X85400Y156300D02*
Y163700D01*
X99600Y156300D02*
Y163700D01*
X93300Y146300D02*
X99600D01*
X85400D02*
X91700D01*
X85400Y153700D02*
X91700D01*
X93300D02*
X99600D01*
X85400Y146300D02*
Y153700D01*
X99600Y146300D02*
Y153700D01*
X65400Y156300D02*
Y163700D01*
X82300Y156300D02*
Y163700D01*
X65400Y156300D02*
X71700D01*
X73300D02*
X82300D01*
X73300Y163700D02*
X82300D01*
X65400D02*
X71700D01*
X65400Y146300D02*
Y153700D01*
X82300Y146300D02*
Y153700D01*
X65400Y146300D02*
X71700D01*
X73300D02*
X82300D01*
X73300Y153700D02*
X82300D01*
X65400D02*
X71700D01*
X65400Y64300D02*
Y71700D01*
X82300Y64300D02*
Y71700D01*
X65400Y64300D02*
X71700D01*
X73300D02*
X82300D01*
X73300Y71700D02*
X82300D01*
X65400D02*
X71700D01*
X93300Y64300D02*
X99600D01*
X85400D02*
X91700D01*
X85400Y71700D02*
X91700D01*
X93300D02*
X99600D01*
X85400Y64300D02*
Y71700D01*
X99600Y64300D02*
Y71700D01*
D29*
X63300Y156300D02*
Y163700D01*
Y146300D02*
Y153700D01*
Y64300D02*
Y71700D01*
D30*
X55000Y132500D02*
X65000D01*
Y92500D02*
Y132500D01*
X55000Y92500D02*
Y132500D01*
Y92500D02*
X65000D01*
X142500Y65000D02*
Y75000D01*
X112500Y65000D02*
X142500D01*
X112500Y75000D02*
X142500D01*
X112500Y65000D02*
Y75000D01*
X122175Y155000D02*
X129100D01*
X105800D02*
X112725D01*
X122475Y165000D02*
X125306D01*
X109944D02*
X111025D01*
X105800D02*
X107781D01*
X111025D02*
X122475D01*
X107781D02*
X109944D01*
X125306D02*
X129100D01*
Y155000D02*
Y165000D01*
X112725Y155000D02*
X122175D01*
X105800D02*
Y165000D01*
X104000Y155000D02*
Y165000D01*
X195000Y108681D02*
Y156319D01*
X131535Y129941D02*
Y132697D01*
Y108681D02*
Y125216D01*
Y142146D02*
Y156319D01*
X145394D01*
X131535Y108681D02*
X145394D01*
X163504D02*
X195000D01*
X163504Y156319D02*
X195000D01*
X155500Y50000D02*
X195000D01*
Y79000D02*
Y96000D01*
X146000Y75500D02*
Y80500D01*
Y96000D01*
Y75500D02*
Y79000D01*
Y96000D02*
X195000D01*
X146000Y50000D02*
X195000D01*
Y79000D01*
X146000Y50000D02*
Y76000D01*
Y79000D02*
X195000D01*
D31*
X57500Y91149D02*
X59599Y88000D01*
Y91149D02*
X57500Y88000D01*
X62748D02*
X60649D01*
X62748Y90099D01*
Y90624D01*
X62223Y91149D01*
X61173D01*
X60649Y90624D01*
X165000Y161149D02*
X167099Y158000D01*
Y161149D02*
X165000Y158000D01*
X168149D02*
X169198D01*
X168673D01*
Y161149D01*
X168149Y160624D01*
X70000Y145149D02*
Y143050D01*
X71049Y142000D01*
X72099Y143050D01*
Y145149D01*
X75248Y142000D02*
X73149D01*
X75248Y144099D01*
Y144624D01*
X74723Y145149D01*
X73673D01*
X73149Y144624D01*
X70500Y168149D02*
Y166050D01*
X71549Y165000D01*
X72599Y166050D01*
Y168149D01*
X73649Y165000D02*
X74698D01*
X74173D01*
Y168149D01*
X73649Y167624D01*
X90000Y142000D02*
Y145149D01*
X91574D01*
X92099Y144624D01*
Y143574D01*
X91574Y143050D01*
X90000D01*
X91049D02*
X92099Y142000D01*
X95248D02*
X93149D01*
X95248Y144099D01*
Y144624D01*
X94723Y145149D01*
X93673D01*
X93149Y144624D01*
X90000Y165000D02*
Y168149D01*
X91574D01*
X92099Y167624D01*
Y166574D01*
X91574Y166050D01*
X90000D01*
X91049D02*
X92099Y165000D01*
X93149D02*
X94198D01*
X93673D01*
Y168149D01*
X93149Y167624D01*
X106649Y146000D02*
X103500D01*
Y143901D01*
Y142851D02*
Y141802D01*
Y142327D01*
X106649D01*
X106124Y142851D01*
X76124Y81401D02*
X76649Y81926D01*
Y82975D01*
X76124Y83500D01*
X74025D01*
X73500Y82975D01*
Y81926D01*
X74025Y81401D01*
X76649Y78252D02*
Y80351D01*
X75074D01*
X75599Y79302D01*
Y78777D01*
X75074Y78252D01*
X74025D01*
X73500Y78777D01*
Y79827D01*
X74025Y80351D01*
X124624Y133401D02*
X125149Y133926D01*
Y134975D01*
X124624Y135500D01*
X122525D01*
X122000Y134975D01*
Y133926D01*
X122525Y133401D01*
X122000Y130777D02*
X125149D01*
X123574Y132351D01*
Y130252D01*
X117099Y169124D02*
X116574Y169649D01*
X115525D01*
X115000Y169124D01*
Y167025D01*
X115525Y166500D01*
X116574D01*
X117099Y167025D01*
X118149Y169124D02*
X118673Y169649D01*
X119723D01*
X120248Y169124D01*
Y168599D01*
X119723Y168074D01*
X119198D01*
X119723D01*
X120248Y167550D01*
Y167025D01*
X119723Y166500D01*
X118673D01*
X118149Y167025D01*
X107624Y81401D02*
X108149Y81926D01*
Y82975D01*
X107624Y83500D01*
X105525D01*
X105000Y82975D01*
Y81926D01*
X105525Y81401D01*
X105000Y78252D02*
Y80351D01*
X107099Y78252D01*
X107624D01*
X108149Y78777D01*
Y79827D01*
X107624Y80351D01*
X84624Y80901D02*
X85149Y81426D01*
Y82475D01*
X84624Y83000D01*
X82525D01*
X82000Y82475D01*
Y81426D01*
X82525Y80901D01*
X82000Y79851D02*
Y78802D01*
Y79327D01*
X85149D01*
X84624Y79851D01*
X90000Y60000D02*
Y63149D01*
X91574D01*
X92099Y62624D01*
Y61574D01*
X91574Y61049D01*
X90000D01*
X91049D02*
X92099Y60000D01*
X94723D02*
Y63149D01*
X93149Y61574D01*
X95248D01*
X56500Y69649D02*
Y67550D01*
X57550Y66500D01*
X58599Y67550D01*
Y69649D01*
X61223Y66500D02*
Y69649D01*
X59649Y68074D01*
X61748D01*
X111149Y72500D02*
X108000Y70401D01*
X111149D02*
X108000Y72500D01*
Y67777D02*
X111149D01*
X109574Y69351D01*
Y67252D01*
X101672Y115748D02*
X98524D01*
Y114174D01*
X99049Y113649D01*
X101148D01*
X101672Y114174D01*
Y115748D01*
X98524Y112599D02*
Y111550D01*
Y112075D01*
X101672D01*
X101148Y112599D01*
X146500Y100649D02*
X148599Y97500D01*
Y100649D02*
X146500Y97500D01*
X149649Y100124D02*
X150173Y100649D01*
X151223D01*
X151748Y100124D01*
Y99599D01*
X151223Y99074D01*
X150698D01*
X151223D01*
X151748Y98549D01*
Y98025D01*
X151223Y97500D01*
X150173D01*
X149649Y98025D01*
X53500Y161649D02*
X55599D01*
X54549D01*
Y158500D01*
X56649Y161649D02*
X58748Y158500D01*
Y161649D02*
X56649Y158500D01*
X59797Y161649D02*
Y158500D01*
X61371D01*
X61896Y159025D01*
Y161124D01*
X61371Y161649D01*
X59797D01*
X53500Y148500D02*
Y151649D01*
X55074D01*
X55599Y151124D01*
Y150074D01*
X55074Y149549D01*
X53500D01*
X54549D02*
X55599Y148500D01*
X56649Y151649D02*
X58748Y148500D01*
Y151649D02*
X56649Y148500D01*
X59797Y151649D02*
Y148500D01*
X61371D01*
X61896Y149025D01*
Y151124D01*
X61371Y151649D01*
X59797D01*
X66500Y60000D02*
Y63149D01*
X68074D01*
X68599Y62624D01*
Y61574D01*
X68074Y61049D01*
X66500D01*
X70173Y60000D02*
X71223D01*
X71748Y60525D01*
Y61574D01*
X71223Y62099D01*
X70173D01*
X69649Y61574D01*
Y60525D01*
X70173Y60000D01*
X72797Y62099D02*
Y60525D01*
X73322Y60000D01*
X73847Y60525D01*
X74371Y60000D01*
X74896Y60525D01*
Y62099D01*
X77520Y60000D02*
X76471D01*
X75946Y60525D01*
Y61574D01*
X76471Y62099D01*
X77520D01*
X78045Y61574D01*
Y61049D01*
X75946D01*
X79094Y62099D02*
Y60000D01*
Y61049D01*
X79619Y61574D01*
X80144Y62099D01*
X80669D01*
X118624Y63500D02*
X119149Y62975D01*
Y61926D01*
X118624Y61401D01*
X118099D01*
X117574Y61926D01*
Y62450D01*
Y61926D01*
X117050Y61401D01*
X116525D01*
X116000Y61926D01*
Y62975D01*
X116525Y63500D01*
X116000Y60351D02*
X116525D01*
Y59827D01*
X116000D01*
Y60351D01*
X118624Y57728D02*
X119149Y57203D01*
Y56153D01*
X118624Y55629D01*
X118099D01*
X117574Y56153D01*
Y56678D01*
Y56153D01*
X117050Y55629D01*
X116525D01*
X116000Y56153D01*
Y57203D01*
X116525Y57728D01*
X119149Y54579D02*
X117050D01*
X116000Y53530D01*
X117050Y52480D01*
X119149D01*
X139149Y61401D02*
Y63500D01*
X137574D01*
X138099Y62450D01*
Y61926D01*
X137574Y61401D01*
X136525D01*
X136000Y61926D01*
Y62975D01*
X136525Y63500D01*
X139149Y60351D02*
X137049D01*
X136000Y59302D01*
X137049Y58252D01*
X139149D01*
X129149Y63500D02*
X126525D01*
X126000Y62975D01*
Y61926D01*
X126525Y61401D01*
X129149D01*
X126000Y59827D02*
Y58777D01*
X126525Y58252D01*
X127574D01*
X128099Y58777D01*
Y59827D01*
X127574Y60351D01*
X126525D01*
X126000Y59827D01*
X128099Y57203D02*
X126525D01*
X126000Y56678D01*
Y55104D01*
X128099D01*
X128624Y53530D02*
X128099D01*
Y54054D01*
Y53005D01*
Y53530D01*
X126525D01*
X126000Y53005D01*
X69099Y118624D02*
X68574Y119149D01*
X67525D01*
X67000Y118624D01*
Y116525D01*
X67525Y116000D01*
X68574D01*
X69099Y116525D01*
Y117574D01*
X68050D01*
X70149Y116000D02*
Y119149D01*
X72248Y116000D01*
Y119149D01*
X73297D02*
Y116000D01*
X74871D01*
X75396Y116525D01*
Y118624D01*
X74871Y119149D01*
X73297D01*
X66500Y109149D02*
X68599D01*
X67550D01*
Y106000D01*
X69649Y109149D02*
X71748Y106000D01*
Y109149D02*
X69649Y106000D01*
X72797Y109149D02*
Y106000D01*
X74371D01*
X74896Y106525D01*
Y108624D01*
X74371Y109149D01*
X72797D01*
X67000Y96000D02*
Y99149D01*
X68574D01*
X69099Y98624D01*
Y97574D01*
X68574Y97049D01*
X67000D01*
X68050D02*
X69099Y96000D01*
X70149Y99149D02*
X72248Y96000D01*
Y99149D02*
X70149Y96000D01*
X73297Y99149D02*
Y96000D01*
X74871D01*
X75396Y96525D01*
Y98624D01*
X74871Y99149D01*
X73297D01*
X67000Y129149D02*
Y126525D01*
X67525Y126000D01*
X68574D01*
X69099Y126525D01*
Y129149D01*
X70673Y126000D02*
X71723D01*
X72248Y126525D01*
Y127574D01*
X71723Y128099D01*
X70673D01*
X70149Y127574D01*
Y126525D01*
X70673Y126000D01*
X73297Y128099D02*
Y126525D01*
X73822Y126000D01*
X75396D01*
Y128099D01*
X76970Y128624D02*
Y128099D01*
X76446D01*
X77495D01*
X76970D01*
Y126525D01*
X77495Y126000D01*
X157149Y74901D02*
Y77000D01*
X155574D01*
X156099Y75950D01*
Y75426D01*
X155574Y74901D01*
X154525D01*
X154000Y75426D01*
Y76475D01*
X154525Y77000D01*
X157149Y73851D02*
X155050D01*
X154000Y72802D01*
X155050Y71752D01*
X157149D01*
X164000Y77000D02*
X167149D01*
Y75426D01*
X166624Y74901D01*
X165574D01*
X165050Y75426D01*
Y77000D01*
Y75950D02*
X164000Y74901D01*
X167149Y73851D02*
X164000Y71752D01*
X167149D02*
X164000Y73851D01*
X167149Y70703D02*
X164000D01*
Y69129D01*
X164525Y68604D01*
X166624D01*
X167149Y69129D01*
Y70703D01*
X177149Y77000D02*
Y74901D01*
Y75950D01*
X174000D01*
X177149Y73851D02*
X174000Y71752D01*
X177149D02*
X174000Y73851D01*
X177149Y70703D02*
X174000D01*
Y69129D01*
X174525Y68604D01*
X176624D01*
X177149Y69129D01*
Y70703D01*
X186624Y74992D02*
X187149Y75516D01*
Y76566D01*
X186624Y77091D01*
X184525D01*
X184000Y76566D01*
Y75516D01*
X184525Y74992D01*
X185574D01*
Y76041D01*
X184000Y73942D02*
X187149D01*
X184000Y71843D01*
X187149D01*
Y70793D02*
X184000D01*
Y69219D01*
X184525Y68694D01*
X186624D01*
X187149Y69219D01*
Y70793D01*
D32*
X140616Y85400D02*
D03*
X135616Y85400D02*
D03*
X130616Y85400D02*
D03*
X125616D02*
D03*
X120616Y85400D02*
D03*
M02*
