%FSLAX25Y25*%
%MOIN*%
G70*
G01*
G75*
G04 Layer_Physical_Order=1*
G04 Layer_Color=255*
%ADD10R,0.05906X0.05118*%
%ADD11R,0.04921X0.01181*%
%ADD12R,0.05118X0.05906*%
%ADD13R,0.08012X0.05906*%
%ADD14R,0.08661X0.05906*%
%ADD15C,0.03937*%
%ADD16C,0.01181*%
%ADD17C,0.05906*%
G04:AMPARAMS|DCode=18|XSize=59.06mil|YSize=59.06mil|CornerRadius=0mil|HoleSize=0mil|Usage=FLASHONLY|Rotation=270.000|XOffset=0mil|YOffset=0mil|HoleType=Round|Shape=Octagon|*
%AMOCTAGOND18*
4,1,8,-0.01476,-0.02953,0.01476,-0.02953,0.02953,-0.01476,0.02953,0.01476,0.01476,0.02953,-0.01476,0.02953,-0.02953,0.01476,-0.02953,-0.01476,-0.01476,-0.02953,0.0*
%
%ADD18OCTAGOND18*%

G04:AMPARAMS|DCode=19|XSize=59.06mil|YSize=59.06mil|CornerRadius=0mil|HoleSize=0mil|Usage=FLASHONLY|Rotation=180.000|XOffset=0mil|YOffset=0mil|HoleType=Round|Shape=Octagon|*
%AMOCTAGOND19*
4,1,8,-0.02953,0.01476,-0.02953,-0.01476,-0.01476,-0.02953,0.01476,-0.02953,0.02953,-0.01476,0.02953,0.01476,0.01476,0.02953,-0.01476,0.02953,-0.02953,0.01476,0.0*
%
%ADD19OCTAGOND19*%

%ADD20C,0.14961*%
%ADD21C,0.06299*%
%ADD22R,0.06299X0.06299*%
%ADD23C,0.02756*%
%ADD24C,0.03937*%
%ADD25C,0.05512*%
G36*
X191000Y54000D02*
X54000D01*
Y171000D01*
X191000D01*
Y54000D01*
D02*
G37*
%LPC*%
G36*
X60000Y100975D02*
X59101Y100856D01*
X58263Y100509D01*
X57543Y99957D01*
X56991Y99237D01*
X56644Y98399D01*
X56525Y97500D01*
X56644Y96601D01*
X56991Y95763D01*
X57543Y95043D01*
X58263Y94491D01*
X59101Y94144D01*
X60000Y94025D01*
X60899Y94144D01*
X61737Y94491D01*
X62457Y95043D01*
X63009Y95763D01*
X63356Y96601D01*
X63475Y97500D01*
X63356Y98399D01*
X63009Y99237D01*
X62457Y99957D01*
X61737Y100509D01*
X60899Y100856D01*
X60000Y100975D01*
D02*
G37*
G36*
X137500Y119615D02*
X136652Y119503D01*
X135862Y119176D01*
X135184Y118655D01*
X134663Y117977D01*
X134336Y117186D01*
X134224Y116339D01*
X134336Y115491D01*
X134663Y114700D01*
X134991Y114273D01*
Y92212D01*
X134528Y91736D01*
X133991Y91638D01*
X133717Y91880D01*
X133625Y92029D01*
X133623Y92086D01*
X133604Y92129D01*
Y100500D01*
X133520Y100922D01*
X133281Y101281D01*
X127678Y106883D01*
X127320Y107122D01*
X126898Y107206D01*
X118661D01*
X117815Y107579D01*
X117815Y108206D01*
Y109630D01*
X118323D01*
Y110925D01*
X111402D01*
Y109630D01*
X111402D01*
X111909Y109122D01*
Y108185D01*
X111909Y107579D01*
Y107382D01*
Y107185D01*
X111909Y106579D01*
Y105626D01*
X111909Y105020D01*
Y104823D01*
Y104626D01*
X111909Y104020D01*
Y103067D01*
X111909Y102461D01*
Y102264D01*
Y102067D01*
X111909Y101461D01*
Y100508D01*
X111909Y99902D01*
Y99705D01*
Y99508D01*
X111909Y98902D01*
Y97949D01*
X111909Y97342D01*
Y97146D01*
Y96949D01*
X111909Y96342D01*
Y94784D01*
X114756D01*
X114862Y94762D01*
X120371D01*
X120414Y94743D01*
X120539Y94740D01*
X120641Y94731D01*
X120733Y94718D01*
X120815Y94700D01*
X120887Y94678D01*
X120950Y94653D01*
X121006Y94626D01*
X121054Y94596D01*
X121097Y94564D01*
X121154Y94511D01*
X121173Y94503D01*
X121770Y94105D01*
X122500Y93959D01*
X123230Y94105D01*
X123848Y94518D01*
X124262Y95136D01*
X124407Y95866D01*
X124262Y96596D01*
X123848Y97214D01*
X123230Y97628D01*
X122500Y97773D01*
X121770Y97628D01*
X121173Y97229D01*
X121154Y97222D01*
X121097Y97169D01*
X121054Y97136D01*
X121005Y97106D01*
X120950Y97079D01*
X120887Y97054D01*
X120815Y97033D01*
X120733Y97015D01*
X120641Y97001D01*
X120539Y96992D01*
X120414Y96989D01*
X120371Y96970D01*
X118661D01*
X117815Y97342D01*
X117815Y97970D01*
Y98902D01*
X117815Y99508D01*
Y99705D01*
Y99902D01*
X117815Y100508D01*
Y101439D01*
X117815Y102067D01*
X118661Y102439D01*
X118661Y102439D01*
X123500D01*
X126396Y99543D01*
Y98371D01*
X126377Y98328D01*
X126345Y97009D01*
X126252Y95933D01*
X126185Y95495D01*
X126104Y95114D01*
X126012Y94800D01*
X125914Y94554D01*
X125816Y94379D01*
X125739Y94282D01*
X125726Y94274D01*
X125698Y94233D01*
X125693Y94226D01*
X125692Y94223D01*
X125182Y93460D01*
X124991Y92500D01*
Y73356D01*
X124975Y72650D01*
X124953Y72375D01*
X124947Y72332D01*
X124491Y71737D01*
X124144Y70899D01*
X124025Y70000D01*
X124144Y69101D01*
X124491Y68263D01*
X125043Y67543D01*
X125763Y66991D01*
X126601Y66644D01*
X127500Y66525D01*
X128399Y66644D01*
X129237Y66991D01*
X129957Y67543D01*
X130509Y68263D01*
X130856Y69101D01*
X130975Y70000D01*
X130856Y70899D01*
X130509Y71737D01*
X130091Y72282D01*
X130009Y73842D01*
Y88562D01*
X131009Y88866D01*
X131152Y88652D01*
X131770Y88238D01*
X132500Y88093D01*
X133230Y88238D01*
X133848Y88652D01*
X133991Y88866D01*
X134991Y88562D01*
Y75787D01*
X134989Y75636D01*
X134961Y74960D01*
X134847Y73774D01*
X134766Y73288D01*
X134667Y72863D01*
X134555Y72505D01*
X134432Y72217D01*
X134306Y72000D01*
X134178Y71845D01*
X134055Y71722D01*
Y71539D01*
X134027Y71470D01*
X134037Y71445D01*
X134029Y71419D01*
X134055Y71370D01*
Y68278D01*
X135778Y66555D01*
X139222D01*
X140945Y68278D01*
Y71370D01*
X140971Y71419D01*
X140963Y71445D01*
X140973Y71470D01*
X140945Y71539D01*
Y71722D01*
X140822Y71845D01*
X140694Y72000D01*
X140568Y72217D01*
X140445Y72505D01*
X140333Y72863D01*
X140234Y73288D01*
X140153Y73769D01*
X140011Y75646D01*
X140009Y75787D01*
Y114273D01*
X140337Y114700D01*
X140664Y115491D01*
X140776Y116339D01*
X140664Y117186D01*
X140337Y117977D01*
X139816Y118655D01*
X139138Y119176D01*
X138348Y119503D01*
X137500Y119615D01*
D02*
G37*
G36*
X154154Y108504D02*
X145957D01*
X146091Y107137D01*
X146576Y105538D01*
X147364Y104065D01*
X148423Y102774D01*
X149715Y101714D01*
X151188Y100926D01*
X152786Y100442D01*
X154154Y100307D01*
Y108504D01*
D02*
G37*
G36*
X88598Y100689D02*
X81677D01*
Y99394D01*
X81677D01*
X82185Y98886D01*
Y97949D01*
X82185Y97342D01*
Y97146D01*
Y96949D01*
X82185Y96342D01*
Y94784D01*
X88091D01*
Y96342D01*
X88091Y96949D01*
Y97146D01*
Y97342D01*
X88091Y97949D01*
Y99394D01*
X88598D01*
Y100689D01*
D02*
G37*
G36*
X181951Y84205D02*
X181547D01*
Y83588D01*
X181557Y83601D01*
X181863Y84054D01*
X181951Y84205D01*
D02*
G37*
G36*
X185205D02*
X184325D01*
X185205Y83325D01*
Y84205D01*
D02*
G37*
G36*
X187616Y88313D02*
X187624Y88204D01*
X187712Y87684D01*
X187819Y87222D01*
X187945Y86821D01*
X188091Y86478D01*
X188256Y86194D01*
X188441Y85970D01*
X185795D01*
Y84795D01*
X189453D01*
Y86476D01*
X187616Y88313D01*
D02*
G37*
G36*
X183387Y88316D02*
X181547Y86476D01*
Y84795D01*
X182263D01*
X182309Y84890D01*
X182448Y85273D01*
X182531Y85633D01*
X182559Y85970D01*
X183734Y84795D01*
X185205D01*
Y85970D01*
X182559D01*
X182744Y86194D01*
X182909Y86478D01*
X183055Y86821D01*
X183182Y87222D01*
X183288Y87684D01*
X183376Y88204D01*
X183387Y88316D01*
D02*
G37*
G36*
X159791Y108504D02*
X154744D01*
Y100307D01*
X156111Y100442D01*
X157710Y100926D01*
X159183Y101714D01*
X160474Y102774D01*
X161534Y104065D01*
X162321Y105538D01*
X162359Y105661D01*
X162346Y105654D01*
X161709Y105229D01*
X161070Y104739D01*
X160431Y104184D01*
X159791Y103563D01*
Y108504D01*
D02*
G37*
G36*
X59705Y117205D02*
X56052D01*
X56149Y116468D01*
X56547Y115507D01*
X57181Y114681D01*
X58007Y114047D01*
X58968Y113649D01*
X59705Y113552D01*
Y117205D01*
D02*
G37*
G36*
X157587Y116709D02*
X157594Y116697D01*
X158019Y116059D01*
X158509Y115421D01*
X159064Y114781D01*
X159685Y114141D01*
X154744D01*
Y109095D01*
X159791D01*
Y114035D01*
X160431Y113415D01*
X161070Y112859D01*
X161709Y112369D01*
X162346Y111944D01*
X162359Y111937D01*
X162321Y112060D01*
X161534Y113533D01*
X160474Y114825D01*
X159183Y115884D01*
X157710Y116672D01*
X157587Y116709D01*
D02*
G37*
G36*
X59705Y121448D02*
X58968Y121351D01*
X58007Y120953D01*
X57181Y120319D01*
X56547Y119493D01*
X56149Y118532D01*
X56052Y117795D01*
X59705D01*
Y121448D01*
D02*
G37*
G36*
X63948Y117205D02*
X60295D01*
Y113552D01*
X61032Y113649D01*
X61993Y114047D01*
X62819Y114681D01*
X63453Y115507D01*
X63851Y116468D01*
X63948Y117205D01*
D02*
G37*
G36*
X60000Y110975D02*
X59101Y110856D01*
X58263Y110509D01*
X57543Y109957D01*
X56991Y109237D01*
X56644Y108399D01*
X56525Y107500D01*
X56644Y106601D01*
X56991Y105763D01*
X57543Y105043D01*
X58263Y104491D01*
X59101Y104144D01*
X60000Y104025D01*
X60899Y104144D01*
X61737Y104491D01*
X62457Y105043D01*
X63009Y105763D01*
X63356Y106601D01*
X63475Y107500D01*
X63356Y108399D01*
X63009Y109237D01*
X62457Y109957D01*
X61737Y110509D01*
X60899Y110856D01*
X60000Y110975D01*
D02*
G37*
G36*
X88598Y103248D02*
X81677D01*
Y101953D01*
Y101279D01*
X88598D01*
Y101953D01*
Y103248D01*
D02*
G37*
G36*
X117815Y130217D02*
X111909D01*
Y128657D01*
X111909Y128051D01*
Y127854D01*
Y127657D01*
X111909Y127051D01*
Y126098D01*
X111909Y125492D01*
Y125295D01*
Y125098D01*
X111909Y124492D01*
Y123539D01*
X111909Y122933D01*
Y122736D01*
Y122539D01*
X111909Y121933D01*
Y120980D01*
X111909Y120374D01*
Y120177D01*
Y119980D01*
X111909Y119374D01*
Y118421D01*
X111909Y117815D01*
Y117618D01*
Y117421D01*
X111909Y116815D01*
Y115862D01*
X111909Y115256D01*
Y115059D01*
Y114862D01*
X111909Y114256D01*
Y112811D01*
X111402D01*
Y111516D01*
X118323D01*
Y112811D01*
X118323D01*
X117815Y113319D01*
Y114256D01*
X117815Y114862D01*
Y115059D01*
Y115256D01*
X117815Y115862D01*
Y116815D01*
X117815Y117421D01*
Y117618D01*
Y117815D01*
X117815Y118421D01*
Y119374D01*
X117815Y119980D01*
Y120177D01*
Y120374D01*
X117815Y120980D01*
Y121933D01*
X117815Y122539D01*
Y122736D01*
Y122933D01*
X117815Y123539D01*
Y124492D01*
X117815Y125098D01*
Y125295D01*
Y125492D01*
X117815Y126098D01*
Y127051D01*
X117815Y127657D01*
Y127854D01*
Y128051D01*
X117815Y128657D01*
Y130217D01*
D02*
G37*
G36*
X151311Y116709D02*
X151188Y116672D01*
X149715Y115884D01*
X148423Y114825D01*
X147364Y113533D01*
X146576Y112060D01*
X146091Y110462D01*
X145957Y109095D01*
X154154D01*
Y114141D01*
X149213D01*
X149834Y114781D01*
X150389Y115421D01*
X150879Y116059D01*
X151304Y116697D01*
X151311Y116709D01*
D02*
G37*
G36*
X68465Y76965D02*
X64807D01*
Y73701D01*
X66554D01*
X66548Y73729D01*
X66441Y74083D01*
X66315Y74358D01*
X66169Y74555D01*
X66004Y74673D01*
X65819Y74713D01*
X66789D01*
X66791Y74878D01*
X68465D01*
Y76965D01*
D02*
G37*
G36*
X103445Y87791D02*
X96555D01*
Y81819D01*
X96555Y81689D01*
X96241Y80819D01*
X96047D01*
Y79371D01*
X96075Y79373D01*
X96429Y79437D01*
X96705Y79512D01*
X96902Y79599D01*
X97020Y79697D01*
X97059Y79807D01*
Y77555D01*
X103953D01*
Y80819D01*
X103953D01*
X103851Y80989D01*
X103921Y81117D01*
X105156Y81296D01*
X105491Y80961D01*
Y70509D01*
X102138D01*
X101996Y70511D01*
X100768Y70587D01*
X100293Y70650D01*
X99901Y70729D01*
X99606Y70818D01*
X99414Y70906D01*
X99329Y70969D01*
X99325Y70976D01*
X99322Y70986D01*
X99322Y70987D01*
X99321Y70990D01*
X99320Y70994D01*
X99320Y70995D01*
X99320Y70996D01*
X99319Y71002D01*
X99319Y71003D01*
X99318Y71005D01*
X99318Y71008D01*
X99317Y71009D01*
X99317D01*
X99316Y71016D01*
X99316Y71017D01*
X99315Y71019D01*
X99314Y71023D01*
X99314Y71024D01*
X99314Y71024D01*
X99313Y71029D01*
X99313Y71030D01*
X99313Y71032D01*
X99312Y71034D01*
X99312Y71035D01*
X99312D01*
X99311Y71039D01*
X99311Y71039D01*
X99311Y71040D01*
X99310Y71042D01*
X99310Y71043D01*
D01*
X99309Y71047D01*
X99309Y71048D01*
X99309Y71049D01*
X99308Y71051D01*
X99308Y71052D01*
X99308Y71052D01*
X99301Y71062D01*
X99299Y71065D01*
X99299Y71066D01*
X99299Y71066D01*
X99294Y71073D01*
X99292Y71076D01*
X99291Y71076D01*
Y71245D01*
Y71273D01*
Y71294D01*
Y71334D01*
Y71346D01*
Y71352D01*
Y71368D01*
Y71374D01*
Y71377D01*
Y71398D01*
Y71407D01*
Y71411D01*
Y71422D01*
Y71424D01*
Y71430D01*
Y71441D01*
X99291Y71445D01*
X98787Y71473D01*
X98787Y71473D01*
X98785Y71472D01*
X98784Y71472D01*
X98784D01*
X98781Y71471D01*
X98769Y71466D01*
X98763Y71463D01*
X98763D01*
X98762Y71463D01*
X98757Y71461D01*
X98754Y71460D01*
X98676Y71462D01*
X98676Y71461D01*
X98674Y71460D01*
X98674Y71460D01*
D01*
X98672Y71459D01*
X98665Y71454D01*
X98662Y71452D01*
D01*
X98661Y71452D01*
X98659Y71450D01*
X98657Y71449D01*
X98657D01*
X98657Y71449D01*
X98657Y71448D01*
X98657Y71448D01*
D01*
X98656Y71448D01*
X98654Y71447D01*
X98653Y71446D01*
X98653D01*
X98653Y71446D01*
X98652Y71445D01*
X98652Y71445D01*
X98636D01*
X98623D01*
X98354Y71445D01*
X98330D01*
X98330D01*
X93189D01*
Y64555D01*
X98291D01*
D01*
X98330Y64555D01*
X98525D01*
X98601Y64555D01*
X98609D01*
X98627D01*
X98629D01*
X98650D01*
X98651D01*
X98651D01*
X98652D01*
X98652Y64555D01*
X98653Y64554D01*
X98653Y64554D01*
X98653Y64554D01*
X98653D01*
X98654Y64553D01*
X98656Y64552D01*
X98656Y64552D01*
X98657Y64552D01*
D01*
X98657Y64552D01*
X98657Y64551D01*
X98657Y64551D01*
X98657Y64551D01*
X98657D01*
X98659Y64550D01*
X98661Y64548D01*
X98662Y64548D01*
X98662Y64548D01*
X98662D01*
X98665Y64546D01*
X98672Y64541D01*
X98672Y64541D01*
X98674Y64540D01*
X98674D01*
X98674Y64539D01*
X98676Y64539D01*
X98676Y64539D01*
X98676Y64538D01*
X98754Y64540D01*
X98757Y64539D01*
X98761Y64537D01*
X98762Y64537D01*
X98763Y64537D01*
X98763D01*
X98769Y64534D01*
X98781Y64529D01*
X98781Y64529D01*
X98784Y64528D01*
X98784D01*
X98785Y64528D01*
X98787Y64527D01*
X98787Y64527D01*
X98787Y64526D01*
X99291Y64555D01*
Y64559D01*
Y64569D01*
Y64586D01*
Y64593D01*
Y64608D01*
Y64638D01*
Y64648D01*
Y64648D01*
Y64654D01*
Y64667D01*
Y64706D01*
Y64727D01*
Y64757D01*
Y64924D01*
X99294Y64927D01*
X99294Y64927D01*
X99299Y64934D01*
X99299Y64934D01*
X99301Y64938D01*
X99302Y64939D01*
X99308Y64948D01*
X99308Y64948D01*
X99308Y64949D01*
X99309Y64951D01*
X99309Y64952D01*
X99309Y64953D01*
X99310Y64957D01*
D01*
X99310Y64958D01*
X99311Y64960D01*
X99311Y64961D01*
X99311Y64961D01*
X99312Y64965D01*
X99312D01*
X99312Y64965D01*
X99313Y64968D01*
X99313Y64970D01*
X99313Y64971D01*
X99314Y64976D01*
X99314Y64976D01*
X99314Y64977D01*
X99315Y64981D01*
X99316Y64983D01*
X99316Y64984D01*
X99317Y64991D01*
X99317D01*
X99318Y64992D01*
X99318Y64995D01*
X99319Y64997D01*
X99319Y64998D01*
X99320Y65004D01*
X99320Y65004D01*
X99320Y65006D01*
X99321Y65010D01*
X99322Y65013D01*
X99322Y65014D01*
X99325Y65025D01*
X99329Y65031D01*
X99414Y65094D01*
X99606Y65182D01*
X99901Y65271D01*
X100279Y65348D01*
X102002Y65489D01*
X102138Y65491D01*
X108000D01*
X108960Y65682D01*
X109774Y66226D01*
X110318Y67040D01*
X110509Y68000D01*
Y82000D01*
X110509Y82000D01*
X110318Y82960D01*
X109774Y83774D01*
X107034Y86514D01*
X106220Y87058D01*
X105260Y87249D01*
X104807D01*
X104442Y87255D01*
X103817Y87295D01*
X103592Y87323D01*
X103445Y87350D01*
Y87791D01*
D02*
G37*
G36*
X92941Y76965D02*
X90295D01*
Y73701D01*
X93953D01*
Y75148D01*
X93925Y75147D01*
X93571Y75083D01*
X93295Y75008D01*
X93098Y74921D01*
X92980Y74823D01*
X92941Y74713D01*
Y76965D01*
D02*
G37*
G36*
X72713Y75148D02*
X72685Y75147D01*
X72330Y75083D01*
X72055Y75008D01*
X71858Y74921D01*
X71740Y74823D01*
X71701Y74713D01*
X71516Y74673D01*
X71351Y74555D01*
X71205Y74358D01*
X71078Y74083D01*
X70971Y73729D01*
X70966Y73701D01*
X72713D01*
Y75148D01*
D02*
G37*
G36*
X72319Y71953D02*
X72291D01*
X72152Y71953D01*
X70871D01*
X70873Y71925D01*
X70937Y71571D01*
X71012Y71295D01*
X71099Y71098D01*
X71197Y70980D01*
X71307Y70941D01*
X70731D01*
X70728Y70776D01*
X69055D01*
Y68000D01*
Y65059D01*
X71307D01*
X71197Y65031D01*
X71099Y64947D01*
X71012Y64806D01*
X70937Y64608D01*
X70873Y64354D01*
X70821Y64047D01*
X72152D01*
X72291Y64047D01*
X72319D01*
X73109Y64555D01*
X73319Y64555D01*
X81938D01*
Y66738D01*
X81952Y66763D01*
X81954Y66780D01*
X81960Y66784D01*
X82021Y66809D01*
X82119Y66835D01*
X82252Y66857D01*
X82419Y66872D01*
X82629Y66877D01*
X82672Y66896D01*
X84975D01*
X85018Y66877D01*
X85228Y66872D01*
X85395Y66857D01*
X85528Y66835D01*
X85626Y66809D01*
X85687Y66784D01*
X85693Y66780D01*
X85695Y66763D01*
X85709Y66738D01*
Y64555D01*
X91811D01*
Y71445D01*
X85709D01*
Y69262D01*
X85695Y69237D01*
X85693Y69220D01*
X85687Y69216D01*
X85626Y69191D01*
X85528Y69165D01*
X85395Y69143D01*
X85228Y69129D01*
X85018Y69123D01*
X84975Y69104D01*
X82672D01*
X82629Y69123D01*
X82419Y69129D01*
X82252Y69143D01*
X82119Y69165D01*
X82021Y69191D01*
X81960Y69216D01*
X81954Y69220D01*
X81952Y69237D01*
X81938Y69262D01*
Y71445D01*
X73319D01*
X73109Y71445D01*
X72319Y71953D01*
D02*
G37*
G36*
X68465Y67705D02*
X65201D01*
Y64047D01*
X66698D01*
X66647Y64354D01*
X66583Y64608D01*
X66508Y64806D01*
X66421Y64947D01*
X66323Y65031D01*
X66213Y65059D01*
X68465D01*
Y67705D01*
D02*
G37*
G36*
X66650Y71953D02*
X65201D01*
Y68295D01*
X68465D01*
Y70776D01*
X66791D01*
X66789Y70941D01*
X66213D01*
X66323Y70980D01*
X66421Y71098D01*
X66508Y71295D01*
X66583Y71571D01*
X66647Y71925D01*
X66650Y71953D01*
D02*
G37*
G36*
X100000Y103509D02*
X99199Y103349D01*
X99040Y103318D01*
X98226Y102774D01*
X98226Y102774D01*
X88226Y92774D01*
X87682Y91960D01*
X87491Y91000D01*
Y90744D01*
X87461Y89694D01*
X87414Y89167D01*
X87351Y88717D01*
X87273Y88353D01*
X87186Y88080D01*
X87101Y87906D01*
X87042Y87831D01*
X87035Y87826D01*
X87023Y87823D01*
X87022Y87823D01*
X87019Y87822D01*
X87014Y87821D01*
X87012Y87821D01*
X87012D01*
X87005Y87820D01*
X87004Y87819D01*
X87002Y87819D01*
X86999Y87818D01*
X86998Y87818D01*
X86998Y87818D01*
X86990Y87817D01*
X86989Y87817D01*
X86987Y87816D01*
X86984Y87815D01*
X86983Y87815D01*
X86983Y87815D01*
X86977Y87814D01*
X86976Y87814D01*
X86974Y87814D01*
X86971Y87813D01*
X86971Y87813D01*
Y87813D01*
X86967Y87812D01*
X86966Y87812D01*
X86965Y87812D01*
X86963Y87811D01*
X86963Y87811D01*
Y87811D01*
X86959Y87810D01*
X86958Y87810D01*
X86957Y87810D01*
X86955Y87810D01*
X86954Y87809D01*
X86954Y87809D01*
X86943Y87802D01*
X86939Y87799D01*
X86939Y87799D01*
X86939Y87799D01*
X86931Y87794D01*
X86928Y87792D01*
X86927Y87791D01*
X86749D01*
X86719D01*
X86699D01*
X86659D01*
X86647D01*
X86641D01*
X86626D01*
X86620D01*
X86617D01*
X86598D01*
X86589D01*
X86585D01*
X86575D01*
X86574D01*
X86568D01*
X86559D01*
X86555Y87791D01*
X86527Y87287D01*
X86527Y87287D01*
X86527Y87285D01*
X86528Y87284D01*
Y87284D01*
X86529Y87282D01*
X86533Y87271D01*
X86536Y87265D01*
Y87265D01*
X86536Y87264D01*
X86538Y87259D01*
X86539Y87257D01*
X86537Y87182D01*
X86537Y87182D01*
X86538Y87181D01*
X86539Y87180D01*
Y87180D01*
X86540Y87178D01*
X86545Y87171D01*
X86547Y87167D01*
Y87167D01*
X86548Y87166D01*
X86550Y87163D01*
X86551Y87162D01*
Y87162D01*
X86551Y87162D01*
X86551Y87161D01*
X86551Y87161D01*
D01*
X86552Y87160D01*
X86553Y87158D01*
X86554Y87157D01*
Y87157D01*
X86554Y87157D01*
X86555Y87156D01*
X86555Y87155D01*
Y87140D01*
Y87131D01*
X86555Y86851D01*
Y86827D01*
Y86827D01*
Y81819D01*
X86555Y81689D01*
X86242Y80819D01*
X86047D01*
Y79371D01*
X86075Y79373D01*
X86429Y79437D01*
X86705Y79512D01*
X86902Y79599D01*
X87020Y79697D01*
X87059Y79807D01*
Y77555D01*
X92941D01*
Y79807D01*
X92980Y79697D01*
X93098Y79599D01*
X93295Y79512D01*
X93571Y79437D01*
X93925Y79373D01*
X93953Y79370D01*
Y80819D01*
X93758D01*
X93445Y81689D01*
X93445Y81819D01*
Y86791D01*
D01*
X93445Y86827D01*
Y87029D01*
X93445Y87116D01*
Y87121D01*
Y87137D01*
Y87140D01*
Y87155D01*
Y87155D01*
Y87155D01*
Y87155D01*
X93445Y87156D01*
X93446Y87157D01*
X93446Y87157D01*
X93446Y87157D01*
Y87157D01*
X93447Y87158D01*
X93448Y87160D01*
X93448Y87160D01*
X93449Y87161D01*
D01*
X93449Y87161D01*
X93449Y87162D01*
X93449Y87162D01*
X93449Y87162D01*
Y87162D01*
X93450Y87163D01*
X93452Y87166D01*
X93452Y87166D01*
X93453Y87167D01*
Y87167D01*
X93455Y87171D01*
X93460Y87178D01*
X93460Y87178D01*
X93461Y87180D01*
Y87180D01*
X93462Y87181D01*
X93463Y87182D01*
X93463Y87182D01*
X93463Y87182D01*
X93461Y87257D01*
X93462Y87259D01*
X93464Y87264D01*
X93464Y87264D01*
X93464Y87265D01*
Y87265D01*
X93467Y87271D01*
X93471Y87282D01*
X93471Y87282D01*
X93472Y87284D01*
D01*
X93473Y87285D01*
X93473Y87287D01*
X93473Y87287D01*
X93474Y87287D01*
X93445Y87791D01*
X93441D01*
X93432D01*
X93431D01*
X93416D01*
X93410D01*
X93396D01*
X93366D01*
X93359D01*
X93359D01*
X93353D01*
X93340D01*
X93300D01*
X93281D01*
X93249D01*
X93073D01*
X93069Y87794D01*
X93069Y87794D01*
X93061Y87799D01*
X93061Y87799D01*
X93057Y87802D01*
X93056Y87802D01*
X93046Y87809D01*
X93046Y87809D01*
X93045Y87810D01*
X93043Y87810D01*
X93042Y87810D01*
X93041Y87810D01*
X93037Y87811D01*
X93037Y87811D01*
X93037Y87811D01*
X93035Y87812D01*
X93034Y87812D01*
X93033Y87812D01*
X93029Y87813D01*
X93029D01*
X93029Y87813D01*
X93026Y87814D01*
X93024Y87814D01*
X93023Y87814D01*
X93017Y87815D01*
X93017Y87815D01*
X93016Y87815D01*
X93013Y87816D01*
X93011Y87817D01*
X93010Y87817D01*
X93002Y87818D01*
D01*
X93001Y87818D01*
X92998Y87819D01*
X92996Y87819D01*
X92995Y87820D01*
X92988Y87821D01*
X92988Y87821D01*
X92986Y87821D01*
X92981Y87822D01*
X92978Y87823D01*
X92977Y87823D01*
X92965Y87826D01*
X92958Y87831D01*
X92899Y87906D01*
X92814Y88080D01*
X92727Y88353D01*
X92652Y88703D01*
X92539Y89991D01*
X99500Y96952D01*
X100500D01*
X114991Y82461D01*
Y73356D01*
X114975Y72650D01*
X114953Y72375D01*
X114947Y72332D01*
X114491Y71737D01*
X114144Y70899D01*
X114025Y70000D01*
X114144Y69101D01*
X114491Y68263D01*
X115043Y67543D01*
X115763Y66991D01*
X116601Y66644D01*
X117500Y66525D01*
X118399Y66644D01*
X119237Y66991D01*
X119957Y67543D01*
X120509Y68263D01*
X120856Y69101D01*
X120975Y70000D01*
X120856Y70899D01*
X120509Y71737D01*
X120091Y72282D01*
X120009Y73842D01*
Y83500D01*
X120009Y83500D01*
X119818Y84460D01*
X119274Y85274D01*
X101774Y102774D01*
X100960Y103318D01*
X100000Y103509D01*
D02*
G37*
G36*
X103953Y76965D02*
X100295D01*
Y73701D01*
X103953D01*
Y76965D01*
D02*
G37*
G36*
X155500Y87975D02*
X154601Y87856D01*
X153763Y87509D01*
X153043Y86957D01*
X152491Y86237D01*
X152144Y85399D01*
X152025Y84500D01*
X152144Y83601D01*
X152491Y82763D01*
X153043Y82043D01*
X153763Y81491D01*
X154601Y81144D01*
X155500Y81025D01*
X156399Y81144D01*
X157237Y81491D01*
X157957Y82043D01*
X158509Y82763D01*
X158856Y83601D01*
X158975Y84500D01*
X158856Y85399D01*
X158509Y86237D01*
X157957Y86957D01*
X157237Y87509D01*
X156399Y87856D01*
X155500Y87975D01*
D02*
G37*
G36*
X189453Y84205D02*
X185795D01*
Y82734D01*
X186970Y81559D01*
X186633Y81531D01*
X186273Y81448D01*
X185890Y81309D01*
X185795Y81263D01*
Y80547D01*
X187476D01*
X189453Y82524D01*
Y84205D01*
D02*
G37*
G36*
X175500Y87975D02*
X174601Y87856D01*
X173763Y87509D01*
X173043Y86957D01*
X172491Y86237D01*
X172144Y85399D01*
X172025Y84500D01*
X172144Y83601D01*
X172491Y82763D01*
X173043Y82043D01*
X173763Y81491D01*
X174601Y81144D01*
X175500Y81025D01*
X176399Y81144D01*
X177237Y81491D01*
X177957Y82043D01*
X178509Y82763D01*
X178856Y83601D01*
X178975Y84500D01*
X178856Y85399D01*
X178509Y86237D01*
X177957Y86957D01*
X177237Y87509D01*
X176399Y87856D01*
X175500Y87975D01*
D02*
G37*
G36*
X165500D02*
X164601Y87856D01*
X163763Y87509D01*
X163043Y86957D01*
X162491Y86237D01*
X162144Y85399D01*
X162025Y84500D01*
X162144Y83601D01*
X162491Y82763D01*
X163043Y82043D01*
X163763Y81491D01*
X164601Y81144D01*
X165500Y81025D01*
X166399Y81144D01*
X167237Y81491D01*
X167957Y82043D01*
X168509Y82763D01*
X168856Y83601D01*
X168975Y84500D01*
X168856Y85399D01*
X168509Y86237D01*
X167957Y86957D01*
X167237Y87509D01*
X166399Y87856D01*
X165500Y87975D01*
D02*
G37*
G36*
X89705Y76965D02*
X87059D01*
Y74713D01*
X87020Y74823D01*
X86902Y74921D01*
X86705Y75008D01*
X86429Y75083D01*
X86075Y75147D01*
X86047Y75150D01*
Y73701D01*
X89705D01*
Y76965D01*
D02*
G37*
G36*
X71701D02*
X69055D01*
Y74878D01*
X70728D01*
X70730Y74713D01*
X71701D01*
Y76965D01*
D02*
G37*
G36*
X185205Y80951D02*
X185054Y80863D01*
X184601Y80557D01*
X184588Y80547D01*
X185205D01*
Y80951D01*
D02*
G37*
G36*
X99705Y76965D02*
X97059D01*
Y74713D01*
X97020Y74823D01*
X96902Y74921D01*
X96705Y75008D01*
X96429Y75083D01*
X96075Y75147D01*
X96047Y75150D01*
Y73701D01*
X99705D01*
Y76965D01*
D02*
G37*
G36*
X61722Y130945D02*
X58278D01*
X56555Y129222D01*
Y125778D01*
X58278Y124055D01*
X58434D01*
X58486Y124028D01*
X58784Y124004D01*
X59075Y123936D01*
X59404Y123817D01*
X59767Y123643D01*
X60162Y123412D01*
X60588Y123124D01*
X61038Y122782D01*
X61804Y122114D01*
X61270Y121253D01*
X61032Y121351D01*
X60295Y121448D01*
Y117795D01*
X63948D01*
X63851Y118532D01*
X63741Y118796D01*
X64589Y119363D01*
X66251Y117701D01*
Y90639D01*
X66249Y90496D01*
X66173Y89268D01*
X66110Y88793D01*
X66031Y88401D01*
X65942Y88106D01*
X65854Y87914D01*
X65791Y87829D01*
X65784Y87824D01*
X65774Y87822D01*
X65773Y87822D01*
X65770Y87821D01*
X65765Y87820D01*
X65764Y87820D01*
X65764Y87820D01*
X65758Y87819D01*
X65757Y87819D01*
X65755Y87818D01*
X65752Y87818D01*
X65751Y87817D01*
Y87817D01*
X65743Y87816D01*
X65743Y87816D01*
X65741Y87815D01*
X65737Y87814D01*
X65736Y87814D01*
X65736Y87814D01*
X65730Y87813D01*
X65730Y87813D01*
X65728Y87813D01*
X65725Y87812D01*
X65725Y87812D01*
Y87812D01*
X65721Y87811D01*
X65720Y87811D01*
X65719Y87811D01*
X65718Y87810D01*
X65717Y87810D01*
D01*
X65712Y87809D01*
X65712Y87809D01*
X65711Y87809D01*
X65709Y87808D01*
X65708Y87808D01*
X65708Y87808D01*
X65698Y87801D01*
X65695Y87799D01*
X65694Y87799D01*
X65694Y87799D01*
X65687Y87793D01*
X65684Y87792D01*
X65684Y87791D01*
X65514D01*
X65487D01*
X65466D01*
X65426D01*
X65414D01*
X65408D01*
X65392D01*
X65386D01*
X65382D01*
X65362D01*
X65353D01*
X65349D01*
X65338D01*
X65336D01*
X65330D01*
X65319D01*
X65315Y87791D01*
X65286Y87287D01*
X65287Y87287D01*
X65288Y87285D01*
X65288Y87284D01*
Y87283D01*
X65289Y87281D01*
X65294Y87269D01*
X65297Y87263D01*
Y87263D01*
X65297Y87262D01*
X65299Y87256D01*
X65300Y87254D01*
X65298Y87176D01*
X65298Y87176D01*
X65299Y87174D01*
X65300Y87174D01*
D01*
X65301Y87172D01*
X65305Y87165D01*
X65308Y87162D01*
D01*
X65308Y87161D01*
X65310Y87159D01*
X65311Y87157D01*
Y87157D01*
X65311Y87157D01*
X65311Y87157D01*
X65311Y87157D01*
D01*
X65312Y87156D01*
X65313Y87154D01*
X65314Y87153D01*
Y87153D01*
X65314Y87153D01*
X65315Y87152D01*
X65315Y87152D01*
Y87136D01*
Y87123D01*
X65315Y86854D01*
Y86830D01*
Y86830D01*
Y81819D01*
X65315Y81689D01*
X65001Y80819D01*
X64807D01*
Y77555D01*
X71701D01*
Y79807D01*
X71740Y79697D01*
X71858Y79599D01*
X72055Y79512D01*
X72330Y79437D01*
X72685Y79373D01*
X72713Y79370D01*
Y80819D01*
X72713D01*
Y80819D01*
X72794Y81785D01*
X73064Y82117D01*
X74877Y82231D01*
X78000D01*
X78960Y82422D01*
X79774Y82966D01*
X80318Y83780D01*
X80509Y84740D01*
X80318Y85700D01*
X79774Y86514D01*
X78960Y87058D01*
X78000Y87249D01*
X75173D01*
X74241Y87264D01*
X73166Y87332D01*
X72764Y87380D01*
X72448Y87437D01*
X72233Y87496D01*
X72205Y87508D01*
Y87791D01*
X71836D01*
X71812Y87808D01*
X71735Y87824D01*
X71729Y87829D01*
X71666Y87914D01*
X71578Y88106D01*
X71489Y88401D01*
X71412Y88779D01*
X71271Y90501D01*
X71269Y90639D01*
Y118740D01*
X71078Y119700D01*
X70534Y120514D01*
X65752Y125296D01*
X65588Y125465D01*
X64718Y126462D01*
X64376Y126912D01*
X64088Y127338D01*
X63857Y127733D01*
X63683Y128096D01*
X63564Y128425D01*
X63496Y128716D01*
X63472Y129014D01*
X63445Y129066D01*
Y129222D01*
X61722Y130945D01*
D02*
G37*
G36*
X127555Y151299D02*
X125808D01*
X125814Y151271D01*
X125921Y150917D01*
X126047Y150642D01*
X126193Y150445D01*
X126358Y150327D01*
X126543Y150287D01*
X123898D01*
Y148035D01*
X127555D01*
Y151299D01*
D02*
G37*
G36*
X162941Y155905D02*
X154744D01*
Y150859D01*
X159685D01*
X159064Y150219D01*
X158509Y149579D01*
X158019Y148941D01*
X157594Y148303D01*
X157587Y148291D01*
X157710Y148328D01*
X159183Y149116D01*
X160474Y150175D01*
X161534Y151467D01*
X162321Y152940D01*
X162806Y154538D01*
X162941Y155905D01*
D02*
G37*
G36*
X121396Y151299D02*
X119650D01*
Y148035D01*
X123307D01*
Y150287D01*
X120662D01*
X120846Y150327D01*
X121012Y150445D01*
X121157Y150642D01*
X121284Y150917D01*
X121391Y151271D01*
X121396Y151299D01*
D02*
G37*
G36*
X127555Y147445D02*
X119650D01*
Y144181D01*
X119650D01*
Y144181D01*
X119568Y143215D01*
X119298Y142883D01*
X117553Y142773D01*
X116879Y142784D01*
X115804Y142852D01*
X115402Y142900D01*
X115086Y142957D01*
X114871Y143015D01*
X114842Y143028D01*
Y143199D01*
Y143252D01*
Y143311D01*
X114338Y143340D01*
X114333Y143337D01*
X114269Y143311D01*
X114269D01*
X114269D01*
X113867Y143311D01*
X113842D01*
X107953D01*
Y137209D01*
X113842D01*
D01*
X113867D01*
X114260Y137209D01*
X114269D01*
X114269D01*
X114333Y137182D01*
X114338Y137180D01*
X114842Y137209D01*
Y137241D01*
Y137267D01*
Y137321D01*
Y137492D01*
X114871Y137504D01*
X115086Y137563D01*
X115387Y137617D01*
X117447Y137747D01*
X118121Y137736D01*
X119196Y137668D01*
X119598Y137620D01*
X119914Y137563D01*
X120129Y137504D01*
X120158Y137492D01*
Y137321D01*
Y137267D01*
Y137209D01*
X120662Y137180D01*
X120667Y137182D01*
X120730Y137209D01*
X120730D01*
X120730D01*
X121133Y137209D01*
X121158D01*
X126047D01*
D01*
X126072D01*
X126465Y137209D01*
X126474D01*
X126474D01*
X126538Y137182D01*
X126543Y137180D01*
X127047Y137209D01*
Y137241D01*
Y137267D01*
Y137321D01*
Y137492D01*
X127076Y137504D01*
X127290Y137563D01*
X127591Y137617D01*
X129541Y137740D01*
X129550Y137740D01*
X130184Y137684D01*
X130729Y137593D01*
X131185Y137471D01*
X131549Y137322D01*
X131823Y137155D01*
X132015Y136978D01*
X132141Y136790D01*
X132217Y136577D01*
X132250Y136266D01*
X132264Y136241D01*
Y133780D01*
X139547D01*
Y134478D01*
X140547Y134817D01*
X140820Y134462D01*
X141687Y133797D01*
X142696Y133379D01*
X143484Y133275D01*
Y137421D01*
Y141568D01*
X142696Y141464D01*
X141687Y141046D01*
X140820Y140381D01*
X140547Y140025D01*
X139547Y140365D01*
Y141063D01*
X135812D01*
X134841Y142034D01*
X134027Y142578D01*
X133067Y142769D01*
X130016D01*
X129084Y142784D01*
X128009Y142852D01*
X127891Y142866D01*
X127623Y143209D01*
X127555Y144181D01*
Y144181D01*
X127555D01*
Y147445D01*
D02*
G37*
G36*
X71811Y163445D02*
X65709D01*
Y161284D01*
X65683Y161237D01*
X65681Y161218D01*
X65676Y161215D01*
X65617Y161191D01*
X65521Y161165D01*
X65390Y161143D01*
X65226Y161128D01*
X65018Y161123D01*
X64975Y161104D01*
X64000D01*
X63578Y161020D01*
X63219Y160781D01*
X61219Y158781D01*
X60980Y158422D01*
X60896Y158000D01*
Y142000D01*
X60980Y141578D01*
X61219Y141219D01*
X72896Y129543D01*
Y113000D01*
X72980Y112578D01*
X73219Y112219D01*
X77558Y107881D01*
X77916Y107642D01*
X78339Y107557D01*
X81339D01*
X82185Y107185D01*
X82185Y106558D01*
Y105134D01*
X81677D01*
Y103839D01*
X88598D01*
Y105134D01*
X88598D01*
X88091Y105642D01*
Y106579D01*
X88091Y107185D01*
Y107382D01*
Y107579D01*
X88091Y108185D01*
Y109744D01*
X88091D01*
Y110138D01*
X88091D01*
Y112189D01*
X88598D01*
Y113484D01*
X81677D01*
Y112324D01*
X79237D01*
X78104Y113457D01*
Y132000D01*
X78104Y132000D01*
X78020Y132422D01*
X77781Y132781D01*
X69864Y140697D01*
Y145821D01*
X69883Y145864D01*
X69888Y146075D01*
X69903Y146241D01*
X69925Y146374D01*
X69951Y146473D01*
X69976Y146534D01*
X69980Y146540D01*
X69997Y146542D01*
X70022Y146555D01*
X71811D01*
Y153445D01*
X65709D01*
Y146555D01*
X67497D01*
X67522Y146542D01*
X67540Y146540D01*
X67544Y146534D01*
X67569Y146473D01*
X67595Y146374D01*
X67617Y146241D01*
X67631Y146075D01*
X67637Y145864D01*
X67656Y145821D01*
Y140240D01*
X67740Y139818D01*
X67979Y139460D01*
X75721Y131718D01*
X75638Y131297D01*
X75376Y131139D01*
X74561Y131000D01*
X63104Y142457D01*
Y157543D01*
X64457Y158896D01*
X64975D01*
X65018Y158877D01*
X65226Y158871D01*
X65390Y158857D01*
X65521Y158835D01*
X65617Y158809D01*
X65676Y158785D01*
X65681Y158782D01*
X65683Y158763D01*
X65709Y158716D01*
Y156555D01*
X71811D01*
Y163445D01*
D02*
G37*
G36*
X154744Y164693D02*
Y156496D01*
X162941D01*
X162806Y157863D01*
X162321Y159462D01*
X161534Y160935D01*
X160474Y162226D01*
X159183Y163286D01*
X157710Y164074D01*
X156111Y164558D01*
X154744Y164693D01*
D02*
G37*
G36*
X154154Y155905D02*
X149107D01*
Y150965D01*
X148467Y151585D01*
X147827Y152141D01*
X147189Y152631D01*
X146551Y153056D01*
X146539Y153063D01*
X146576Y152940D01*
X147364Y151467D01*
X148423Y150175D01*
X149715Y149116D01*
X151188Y148328D01*
X151311Y148291D01*
X151304Y148303D01*
X150879Y148941D01*
X150389Y149579D01*
X149834Y150219D01*
X149213Y150859D01*
X154154D01*
Y155905D01*
D02*
G37*
G36*
X91811Y153445D02*
X85709D01*
Y151262D01*
X85695Y151237D01*
X85693Y151220D01*
X85687Y151216D01*
X85626Y151191D01*
X85528Y151165D01*
X85395Y151143D01*
X85228Y151128D01*
X85018Y151123D01*
X84975Y151104D01*
X82672D01*
X82629Y151123D01*
X82419Y151128D01*
X82252Y151143D01*
X82119Y151165D01*
X82021Y151191D01*
X81960Y151216D01*
X81954Y151220D01*
X81952Y151237D01*
X81938Y151262D01*
Y153445D01*
X72942D01*
Y146555D01*
X81938D01*
Y148738D01*
X81952Y148763D01*
X81954Y148780D01*
X81960Y148784D01*
X82021Y148809D01*
X82119Y148835D01*
X82252Y148857D01*
X82419Y148872D01*
X82629Y148877D01*
X82672Y148896D01*
X84975D01*
X85018Y148877D01*
X85228Y148872D01*
X85395Y148857D01*
X85528Y148835D01*
X85626Y148809D01*
X85687Y148784D01*
X85693Y148780D01*
X85695Y148763D01*
X85709Y148738D01*
Y146555D01*
X91811D01*
Y153445D01*
D02*
G37*
G36*
X123307Y159705D02*
X118272D01*
Y156047D01*
X121153D01*
X121142Y156075D01*
X120925Y156429D01*
X120669Y156705D01*
X120374Y156902D01*
X120039Y157020D01*
X119665Y157059D01*
X123307D01*
Y159705D01*
D02*
G37*
G36*
X154154Y164693D02*
X152786Y164558D01*
X151188Y164074D01*
X149715Y163286D01*
X148423Y162226D01*
X147364Y160935D01*
X146576Y159462D01*
X146539Y159339D01*
X146551Y159346D01*
X147189Y159771D01*
X147827Y160261D01*
X148467Y160816D01*
X149107Y161437D01*
Y156496D01*
X154154D01*
Y164693D01*
D02*
G37*
G36*
X127921Y159705D02*
X123898D01*
Y157059D01*
X127539D01*
X127165Y157020D01*
X126831Y156902D01*
X126535Y156705D01*
X126279Y156429D01*
X126063Y156075D01*
X126052Y156047D01*
X128933D01*
Y157794D01*
X128905Y157788D01*
X128551Y157682D01*
X128275Y157555D01*
X128078Y157409D01*
X127960Y157244D01*
X127921Y157059D01*
Y159705D01*
D02*
G37*
G36*
X144075Y141568D02*
Y137716D01*
X146029D01*
Y139626D01*
X146091Y139581D01*
X146187Y139541D01*
X146315Y139506D01*
X146476Y139475D01*
X146669Y139449D01*
X147155Y139411D01*
X147450Y139405D01*
X147404Y139514D01*
X146739Y140381D01*
X145872Y141046D01*
X144863Y141464D01*
X144075Y141568D01*
D02*
G37*
G36*
X143780Y131252D02*
X142829Y131127D01*
X141943Y130760D01*
X141182Y130176D01*
X140598Y129415D01*
X140377Y128882D01*
X139308D01*
X139087Y129415D01*
X138503Y130176D01*
X137742Y130760D01*
X136856Y131127D01*
X135906Y131252D01*
X134955Y131127D01*
X134069Y130760D01*
X133308Y130176D01*
X132724Y129415D01*
X132358Y128529D01*
X132232Y127579D01*
X132358Y126628D01*
X132724Y125742D01*
X133308Y124981D01*
X134069Y124398D01*
X134955Y124031D01*
X135906Y123906D01*
X136856Y124031D01*
X137742Y124398D01*
X138503Y124981D01*
X139087Y125742D01*
X139308Y126276D01*
X140377D01*
X140598Y125742D01*
X141182Y124981D01*
X141943Y124398D01*
X142829Y124031D01*
X143780Y123906D01*
X144730Y124031D01*
X145616Y124398D01*
X146377Y124981D01*
X146961Y125742D01*
X147327Y126628D01*
X147453Y127579D01*
X147327Y128529D01*
X146961Y129415D01*
X146377Y130176D01*
X145616Y130760D01*
X144730Y131127D01*
X143780Y131252D01*
D02*
G37*
G36*
X95000Y134407D02*
X94270Y134262D01*
X93652Y133848D01*
X93238Y133230D01*
X93098Y132526D01*
X93090Y132507D01*
X93087Y132429D01*
X93079Y132376D01*
X93066Y132320D01*
X93047Y132262D01*
X93019Y132200D01*
X92984Y132133D01*
X92938Y132062D01*
X92883Y131988D01*
X92817Y131910D01*
X92731Y131819D01*
X92714Y131775D01*
X91177Y130238D01*
X85138D01*
X85031Y130217D01*
X82185D01*
Y128657D01*
X82185Y128051D01*
Y127854D01*
Y127657D01*
X82185Y127051D01*
Y126098D01*
X82185Y125492D01*
Y125295D01*
Y125098D01*
X82185Y124492D01*
Y123047D01*
X81677D01*
Y121752D01*
X88598D01*
Y122912D01*
X90811D01*
X91011Y122711D01*
X91026Y122669D01*
X91128Y122558D01*
X91205Y122457D01*
X91272Y122350D01*
X91331Y122233D01*
X91382Y122107D01*
X91424Y121971D01*
X91457Y121823D01*
X91481Y121664D01*
X91495Y121492D01*
X91499Y121320D01*
X91491Y121283D01*
X91682Y120323D01*
X92226Y119509D01*
X93040Y118966D01*
X94000Y118775D01*
X94960Y118966D01*
X95774Y119509D01*
X96318Y120323D01*
X96509Y121283D01*
X96318Y122243D01*
X95774Y123057D01*
X94960Y123601D01*
X94000Y123792D01*
X93963Y123785D01*
X93791Y123788D01*
X93620Y123802D01*
X93460Y123826D01*
X93313Y123860D01*
X93176Y123902D01*
X93130Y123920D01*
X92628Y124471D01*
X92676Y125202D01*
X92788Y125471D01*
X95826D01*
X95863Y125452D01*
X95872Y125455D01*
X95881Y125452D01*
X96005Y125448D01*
X96105Y125440D01*
X96194Y125426D01*
X96272Y125407D01*
X96340Y125386D01*
X96398Y125361D01*
X96448Y125334D01*
X96492Y125305D01*
X96530Y125273D01*
X96584Y125218D01*
X96617Y125204D01*
X96652Y125152D01*
X97270Y124738D01*
X98000Y124593D01*
X98730Y124738D01*
X99348Y125152D01*
X99762Y125770D01*
X99907Y126500D01*
X99762Y127230D01*
X99348Y127848D01*
X98730Y128262D01*
X98000Y128407D01*
X97270Y128262D01*
X96802Y127949D01*
X96729Y127926D01*
X96668Y127875D01*
X96621Y127842D01*
X96568Y127813D01*
X96508Y127786D01*
X96440Y127761D01*
X96364Y127740D01*
X96278Y127722D01*
X96184Y127709D01*
X96079Y127701D01*
X95953Y127698D01*
X95910Y127679D01*
X93154D01*
X92740Y128679D01*
X94275Y130214D01*
X94319Y130231D01*
X94410Y130317D01*
X94488Y130383D01*
X94563Y130438D01*
X94633Y130483D01*
X94699Y130519D01*
X94762Y130547D01*
X94820Y130566D01*
X94876Y130579D01*
X94929Y130587D01*
X95007Y130590D01*
X95026Y130598D01*
X95730Y130738D01*
X96348Y131152D01*
X96762Y131770D01*
X96907Y132500D01*
X96762Y133230D01*
X96348Y133848D01*
X95730Y134262D01*
X95000Y134407D01*
D02*
G37*
G36*
X146029Y137126D02*
X144075D01*
Y133275D01*
X144863Y133379D01*
X145872Y133797D01*
X146739Y134462D01*
X147404Y135329D01*
X147446Y135430D01*
X146476Y135368D01*
X146315Y135337D01*
X146187Y135302D01*
X146091Y135261D01*
X146029Y135216D01*
Y137126D01*
D02*
G37*
G36*
X123307Y163953D02*
X118272D01*
Y160295D01*
X123307D01*
Y163953D01*
D02*
G37*
G36*
X128933D02*
X123898D01*
Y160295D01*
X127921D01*
Y162941D01*
X127960Y162756D01*
X128078Y162591D01*
X128275Y162445D01*
X128551Y162319D01*
X128905Y162212D01*
X128933Y162206D01*
Y163953D01*
D02*
G37*
G36*
X98787Y163473D02*
X98787Y163473D01*
X98785Y163472D01*
X98784Y163472D01*
X98784D01*
X98781Y163471D01*
X98769Y163466D01*
X98763Y163463D01*
X98763D01*
X98762Y163463D01*
X98757Y163461D01*
X98754Y163460D01*
X98676Y163462D01*
X98676Y163461D01*
X98674Y163461D01*
X98674Y163460D01*
X98674D01*
X98672Y163459D01*
X98665Y163454D01*
X98662Y163452D01*
X98662D01*
X98662Y163452D01*
X98659Y163450D01*
X98657Y163449D01*
X98657D01*
X98657Y163449D01*
X98657Y163449D01*
X98657Y163448D01*
X98657D01*
X98656Y163448D01*
X98654Y163447D01*
X98653Y163446D01*
D01*
X98653Y163446D01*
X98652Y163445D01*
X98652Y163445D01*
X98636D01*
X98623D01*
X98354Y163445D01*
X98330D01*
X98330D01*
X93189D01*
Y157555D01*
D01*
Y157531D01*
X93189Y157137D01*
Y157128D01*
Y157128D01*
X93163Y157065D01*
X93160Y157059D01*
X93189Y156555D01*
X93221D01*
X93248D01*
X93301D01*
X93472D01*
X93485Y156526D01*
X93543Y156312D01*
X93597Y156011D01*
X93673Y154803D01*
X93648Y154407D01*
X93600Y154004D01*
X93543Y153688D01*
X93485Y153474D01*
X93472Y153445D01*
X93301D01*
X93248D01*
X93189D01*
X93160Y152941D01*
X93163Y152935D01*
X93189Y152872D01*
Y152872D01*
Y152872D01*
X93189Y152469D01*
Y152445D01*
Y147555D01*
D01*
Y147531D01*
X93189Y147137D01*
Y147128D01*
Y147128D01*
X93163Y147065D01*
X93160Y147059D01*
X93189Y146555D01*
X93221D01*
X93248D01*
X93301D01*
X93472D01*
X93485Y146526D01*
X93543Y146312D01*
X93597Y146011D01*
X93731Y143883D01*
Y140760D01*
X93922Y139800D01*
X94466Y138986D01*
X101830Y131622D01*
Y117766D01*
X101724Y117735D01*
X101344Y117654D01*
X100910Y117587D01*
X99198Y117470D01*
X98518Y117462D01*
X98472Y117443D01*
X88936D01*
X88091Y117815D01*
X88091Y118442D01*
Y119866D01*
X88598D01*
Y121161D01*
X81677D01*
Y119866D01*
X81677D01*
X82185Y119358D01*
Y118421D01*
X82185Y117815D01*
Y117618D01*
Y117421D01*
X82185Y116815D01*
Y115370D01*
X81677D01*
Y114075D01*
X88598D01*
Y115235D01*
X98468D01*
X98511Y115216D01*
X99830Y115184D01*
X100906Y115091D01*
X101344Y115023D01*
X101724Y114942D01*
X102038Y114851D01*
X102284Y114752D01*
X102460Y114655D01*
X102556Y114577D01*
X102565Y114565D01*
X102606Y114537D01*
X102613Y114531D01*
X102615Y114531D01*
X103378Y114021D01*
X104339Y113830D01*
X105299Y114021D01*
X106113Y114565D01*
X106656Y115378D01*
X106847Y116339D01*
Y132661D01*
X106847Y132661D01*
X106656Y133622D01*
X106113Y134435D01*
X106113Y134435D01*
X98749Y141799D01*
Y143587D01*
X98764Y144518D01*
X98832Y145593D01*
X98880Y145996D01*
X98937Y146312D01*
X98996Y146526D01*
X99008Y146555D01*
X99179D01*
X99233D01*
X99291D01*
X99320Y147059D01*
X99318Y147065D01*
X99291Y147128D01*
Y147128D01*
Y147128D01*
X99291Y147531D01*
Y147555D01*
Y152445D01*
D01*
Y152469D01*
X99291Y152863D01*
Y152872D01*
Y152872D01*
X99318Y152935D01*
X99320Y152941D01*
X99291Y153445D01*
X99259D01*
X99233D01*
X99179D01*
X99008D01*
X98996Y153474D01*
X98937Y153688D01*
X98883Y153989D01*
X98807Y155197D01*
X98832Y155593D01*
X98880Y155996D01*
X98937Y156312D01*
X98996Y156526D01*
X99008Y156555D01*
X99291D01*
Y156924D01*
X99308Y156948D01*
X99325Y157025D01*
X99329Y157031D01*
X99414Y157094D01*
X99606Y157182D01*
X99901Y157271D01*
X100279Y157348D01*
X102002Y157489D01*
X102138Y157491D01*
X103728D01*
X103870Y157489D01*
X105098Y157413D01*
X105574Y157350D01*
X105965Y157271D01*
X106260Y157182D01*
X106452Y157094D01*
X106537Y157031D01*
X106542Y157025D01*
X106544Y157014D01*
X106544Y157013D01*
X106545Y157010D01*
X106546Y157006D01*
X106546Y157004D01*
X106546Y157004D01*
X106547Y156998D01*
X106547Y156997D01*
X106548Y156995D01*
X106549Y156992D01*
X106549Y156991D01*
X106549D01*
X106550Y156984D01*
X106551Y156983D01*
X106551Y156981D01*
X106552Y156977D01*
X106552Y156976D01*
X106552Y156976D01*
X106553Y156971D01*
X106553Y156970D01*
X106554Y156968D01*
X106554Y156966D01*
X106554Y156965D01*
X106554D01*
X106555Y156961D01*
X106555Y156961D01*
X106555Y156959D01*
X106556Y156958D01*
X106556Y156957D01*
D01*
X106557Y156953D01*
X106557Y156952D01*
X106557Y156951D01*
X106558Y156949D01*
X106558Y156948D01*
X106558Y156948D01*
X106565Y156938D01*
X106567Y156935D01*
X106568Y156934D01*
X106568Y156934D01*
X106573Y156927D01*
X106574Y156924D01*
X106575Y156924D01*
Y156779D01*
Y156743D01*
Y156723D01*
Y156675D01*
Y156656D01*
Y156648D01*
Y156633D01*
Y156626D01*
Y156623D01*
Y156604D01*
Y156593D01*
Y156589D01*
Y156578D01*
Y156577D01*
Y156570D01*
Y156560D01*
X106575Y156555D01*
X107079Y156527D01*
X107080Y156527D01*
X107081Y156528D01*
X107083Y156528D01*
X107083D01*
X107086Y156529D01*
X107097Y156534D01*
X107103Y156537D01*
X107103D01*
X107105Y156537D01*
X107109Y156539D01*
X107112Y156540D01*
X107190Y156538D01*
X107190Y156539D01*
X107192Y156539D01*
X107193Y156540D01*
D01*
X107195Y156541D01*
X107201Y156545D01*
X107204Y156548D01*
D01*
X107205Y156548D01*
X107207Y156550D01*
X107209Y156551D01*
X107209D01*
X107209Y156551D01*
X107209Y156552D01*
X107210Y156552D01*
D01*
X107210Y156552D01*
X107212Y156553D01*
X107213Y156554D01*
X107213D01*
X107213Y156554D01*
X107214Y156555D01*
X107214Y156555D01*
X107219D01*
X107221D01*
X107358Y156555D01*
X107405Y156529D01*
X107717Y156497D01*
X107929Y156422D01*
X108117Y156297D01*
X108294Y156106D01*
X108460Y155834D01*
X108608Y155471D01*
X108731Y155017D01*
X108822Y154472D01*
X108877Y153840D01*
X108887Y153490D01*
X108811Y152268D01*
X108748Y151793D01*
X108669Y151401D01*
X108580Y151106D01*
X108492Y150914D01*
X108429Y150829D01*
X108422Y150824D01*
X108412Y150822D01*
X108411Y150822D01*
X108408Y150821D01*
X108403Y150820D01*
X108402Y150820D01*
X108402Y150820D01*
X108395Y150819D01*
X108395Y150819D01*
X108393Y150818D01*
X108390Y150818D01*
X108389Y150817D01*
Y150817D01*
X108381Y150816D01*
X108381Y150816D01*
X108378Y150815D01*
X108375Y150814D01*
X108374Y150814D01*
X108374Y150814D01*
X108368Y150813D01*
X108368Y150813D01*
X108366Y150812D01*
X108363Y150812D01*
X108362Y150812D01*
Y150812D01*
X108359Y150811D01*
X108358Y150811D01*
X108357Y150811D01*
X108355Y150810D01*
X108355Y150810D01*
D01*
X108350Y150809D01*
X108350Y150809D01*
X108349Y150809D01*
X108346Y150808D01*
X108346Y150808D01*
X108346Y150808D01*
X108336Y150801D01*
X108332Y150799D01*
X108332Y150799D01*
X108332Y150798D01*
X108324Y150794D01*
X108322Y150792D01*
X108321Y150791D01*
X108152D01*
X108125D01*
X108104D01*
X108064D01*
X108052D01*
X108045D01*
X108030D01*
X108023D01*
X108020D01*
X108000D01*
X107991D01*
X107986D01*
X107975D01*
X107974D01*
X107968D01*
X107957D01*
X107953Y150791D01*
X107924Y150287D01*
X107924Y150287D01*
X107925Y150285D01*
X107926Y150284D01*
Y150284D01*
X107927Y150281D01*
X107932Y150269D01*
X107934Y150263D01*
Y150263D01*
X107935Y150262D01*
X107937Y150257D01*
X107938Y150254D01*
X107936Y150176D01*
X107936Y150176D01*
X107937Y150174D01*
X107938Y150174D01*
D01*
X107939Y150172D01*
X107943Y150165D01*
X107946Y150162D01*
D01*
X107946Y150161D01*
X107948Y150159D01*
X107949Y150157D01*
Y150157D01*
X107949Y150157D01*
X107949Y150157D01*
X107949Y150157D01*
D01*
X107950Y150156D01*
X107951Y150154D01*
X107952Y150153D01*
Y150153D01*
X107952Y150153D01*
X107952Y150152D01*
X107953Y150152D01*
Y150136D01*
Y150123D01*
X107953Y149854D01*
Y149830D01*
Y149830D01*
Y144689D01*
X114842D01*
Y149791D01*
D01*
X114842Y150152D01*
X114843Y150152D01*
X114843Y150153D01*
X114843Y150153D01*
X114843Y150153D01*
X114843Y150153D01*
X114844Y150153D01*
Y150153D01*
X114845Y150155D01*
X114845Y150155D01*
X114845Y150156D01*
X114846Y150156D01*
X114846Y150156D01*
X114846Y150157D01*
D01*
X114846Y150157D01*
X114846Y150157D01*
X114846Y150157D01*
X114846Y150157D01*
X114846Y150157D01*
X114847Y150157D01*
Y150157D01*
X114848Y150160D01*
X114848Y150160D01*
X114849Y150161D01*
X114849Y150161D01*
X114849Y150162D01*
X114850Y150162D01*
Y150162D01*
X114853Y150167D01*
X114854Y150169D01*
X114855Y150170D01*
X114856Y150171D01*
X114857Y150172D01*
X114858Y150174D01*
Y150174D01*
X114858Y150175D01*
X114859Y150175D01*
X114859Y150175D01*
X114859Y150176D01*
X114859Y150176D01*
X114859Y150176D01*
X114857Y150254D01*
X114859Y150258D01*
X114860Y150259D01*
X114860Y150260D01*
X114860Y150261D01*
X114861Y150262D01*
X114861Y150263D01*
Y150263D01*
X114865Y150272D01*
X114866Y150275D01*
X114867Y150278D01*
X114868Y150280D01*
X114869Y150281D01*
X114870Y150284D01*
Y150284D01*
X114870Y150285D01*
X114871Y150286D01*
X114871Y150286D01*
X114871Y150286D01*
X114871Y150287D01*
X114871Y150287D01*
X114842Y150791D01*
X114838D01*
X114829D01*
X114812D01*
X114804D01*
X114791D01*
X114750D01*
X114740D01*
X114724D01*
X114660D01*
X114650D01*
X114633D01*
X114560D01*
X114552D01*
X114538D01*
X114474D01*
X114473Y150792D01*
X114471Y150794D01*
X114470Y150794D01*
X114463Y150798D01*
X114463Y150799D01*
X114463Y150799D01*
X114459Y150801D01*
X114459Y150802D01*
X114450Y150808D01*
X114449Y150808D01*
X114449Y150808D01*
X114447Y150809D01*
X114445Y150809D01*
X114445Y150809D01*
X114441Y150810D01*
D01*
X114440Y150810D01*
X114438Y150811D01*
X114437Y150811D01*
X114437Y150811D01*
X114433Y150812D01*
Y150812D01*
X114432Y150812D01*
X114429Y150812D01*
X114428Y150813D01*
X114427Y150813D01*
X114421Y150814D01*
X114421Y150814D01*
X114420Y150814D01*
X114417Y150815D01*
X114415Y150816D01*
X114414Y150816D01*
X114406Y150817D01*
Y150817D01*
X114406Y150818D01*
X114402Y150818D01*
X114401Y150819D01*
X114400Y150819D01*
X114393Y150820D01*
X114393Y150820D01*
X114392Y150820D01*
X114387Y150821D01*
X114384Y150822D01*
X114383Y150822D01*
X114373Y150824D01*
X114366Y150829D01*
X114304Y150914D01*
X114216Y151106D01*
X114126Y151401D01*
X114050Y151779D01*
X113909Y153495D01*
X113918Y153840D01*
X113974Y154472D01*
X114065Y155017D01*
X114187Y155471D01*
X114335Y155834D01*
X114502Y156106D01*
X114678Y156297D01*
X114866Y156422D01*
X115079Y156497D01*
X115390Y156529D01*
X115438Y156555D01*
X116220D01*
Y163445D01*
X107575D01*
D01*
X107536Y163445D01*
X107341D01*
X107265Y163445D01*
X107257D01*
X107239D01*
X107237D01*
X107216D01*
X107215D01*
X107215D01*
X107214D01*
X107214Y163445D01*
X107213Y163446D01*
X107213Y163446D01*
X107213Y163446D01*
D01*
X107212Y163447D01*
X107210Y163448D01*
X107210Y163448D01*
X107210Y163448D01*
X107210D01*
X107209Y163449D01*
X107209Y163449D01*
X107209Y163449D01*
X107209Y163449D01*
X107209D01*
X107207Y163450D01*
X107205Y163452D01*
X107205Y163452D01*
X107204Y163452D01*
X107204D01*
X107201Y163454D01*
X107194Y163459D01*
X107194Y163459D01*
X107193Y163460D01*
X107192D01*
X107192Y163461D01*
X107190Y163461D01*
X107190Y163461D01*
X107190Y163462D01*
X107112Y163460D01*
X107110Y163461D01*
X107105Y163463D01*
X107104Y163463D01*
X107103Y163463D01*
X107103D01*
X107097Y163466D01*
X107086Y163471D01*
X107085Y163471D01*
X107083Y163472D01*
X107083D01*
X107082Y163472D01*
X107080Y163473D01*
X107079Y163473D01*
X107079Y163473D01*
X106575Y163445D01*
Y163441D01*
Y163431D01*
Y163414D01*
Y163407D01*
Y163392D01*
Y163362D01*
Y163352D01*
Y163352D01*
Y163346D01*
Y163333D01*
Y163294D01*
Y163273D01*
Y163243D01*
Y163076D01*
X106573Y163073D01*
X106572Y163073D01*
X106568Y163066D01*
X106568Y163066D01*
X106565Y163062D01*
X106564Y163061D01*
X106558Y163052D01*
X106558Y163052D01*
X106558Y163051D01*
X106557Y163049D01*
X106557Y163048D01*
X106557Y163047D01*
X106556Y163043D01*
D01*
X106556Y163042D01*
X106555Y163040D01*
X106555Y163039D01*
X106555Y163039D01*
X106554Y163035D01*
X106554Y163035D01*
X106554Y163034D01*
X106554Y163032D01*
X106553Y163030D01*
X106553Y163029D01*
X106552Y163024D01*
X106552Y163024D01*
X106552Y163023D01*
X106551Y163019D01*
X106551Y163017D01*
X106550Y163016D01*
X106549Y163009D01*
X106549D01*
X106549Y163008D01*
X106548Y163005D01*
X106547Y163003D01*
X106547Y163002D01*
X106546Y162996D01*
X106546Y162996D01*
X106546Y162994D01*
X106545Y162990D01*
X106544Y162987D01*
X106544Y162986D01*
X106542Y162976D01*
X106537Y162969D01*
X106452Y162906D01*
X106260Y162818D01*
X105965Y162729D01*
X105587Y162652D01*
X103865Y162511D01*
X103728Y162509D01*
X102138D01*
X101996Y162511D01*
X100768Y162586D01*
X100293Y162650D01*
X99901Y162729D01*
X99606Y162818D01*
X99414Y162906D01*
X99329Y162969D01*
X99325Y162976D01*
X99322Y162986D01*
X99322Y162987D01*
X99321Y162990D01*
X99320Y162994D01*
X99320Y162996D01*
X99320Y162996D01*
X99319Y163002D01*
X99319Y163003D01*
X99318Y163005D01*
X99318Y163008D01*
X99317Y163009D01*
X99317D01*
X99316Y163016D01*
X99316Y163017D01*
X99315Y163019D01*
X99314Y163023D01*
X99314Y163024D01*
X99314Y163024D01*
X99313Y163029D01*
X99313Y163030D01*
X99313Y163032D01*
X99312Y163034D01*
X99312Y163035D01*
X99312Y163035D01*
X99311Y163039D01*
X99311Y163039D01*
X99311Y163040D01*
X99310Y163042D01*
X99310Y163043D01*
Y163043D01*
X99309Y163047D01*
X99309Y163048D01*
X99309Y163049D01*
X99308Y163051D01*
X99308Y163052D01*
X99308Y163052D01*
X99301Y163062D01*
X99299Y163065D01*
X99299Y163066D01*
X99299Y163066D01*
X99294Y163073D01*
X99292Y163076D01*
X99291Y163076D01*
Y163245D01*
Y163273D01*
Y163294D01*
Y163334D01*
Y163346D01*
Y163352D01*
Y163368D01*
Y163374D01*
Y163377D01*
Y163398D01*
Y163407D01*
Y163411D01*
Y163422D01*
Y163424D01*
Y163430D01*
Y163441D01*
X99291Y163445D01*
X98787Y163473D01*
D02*
G37*
G36*
X91811Y163445D02*
X85709D01*
Y161262D01*
X85695Y161237D01*
X85693Y161220D01*
X85687Y161216D01*
X85626Y161191D01*
X85528Y161165D01*
X85395Y161143D01*
X85228Y161128D01*
X85018Y161123D01*
X84975Y161104D01*
X82672D01*
X82629Y161123D01*
X82419Y161128D01*
X82252Y161143D01*
X82119Y161165D01*
X82021Y161191D01*
X81960Y161216D01*
X81954Y161220D01*
X81952Y161237D01*
X81938Y161262D01*
Y163445D01*
X72942D01*
Y156555D01*
X81938D01*
Y158738D01*
X81952Y158763D01*
X81954Y158780D01*
X81960Y158784D01*
X82021Y158809D01*
X82119Y158835D01*
X82252Y158857D01*
X82419Y158871D01*
X82629Y158877D01*
X82672Y158896D01*
X84975D01*
X85018Y158877D01*
X85228Y158871D01*
X85395Y158857D01*
X85528Y158835D01*
X85626Y158809D01*
X85687Y158784D01*
X85693Y158780D01*
X85695Y158763D01*
X85709Y158738D01*
Y156555D01*
X91811D01*
Y163445D01*
D02*
G37*
%LPD*%
G36*
X98827Y70756D02*
X98945Y70591D01*
X99142Y70445D01*
X99417Y70319D01*
X99771Y70212D01*
X100205Y70124D01*
X100716Y70056D01*
X101976Y69978D01*
X102724Y69968D01*
Y66031D01*
X101976Y66022D01*
X100205Y65876D01*
X99771Y65788D01*
X99417Y65681D01*
X99142Y65555D01*
X98945Y65409D01*
X98827Y65244D01*
X98787Y65059D01*
Y70941D01*
X98827Y70756D01*
D02*
G37*
G36*
Y162756D02*
X98945Y162591D01*
X99142Y162445D01*
X99417Y162319D01*
X99771Y162212D01*
X100205Y162124D01*
X100716Y162056D01*
X101976Y161978D01*
X102724Y161969D01*
Y158031D01*
X101976Y158022D01*
X100205Y157876D01*
X99771Y157788D01*
X99417Y157682D01*
X99142Y157555D01*
X98945Y157409D01*
X98827Y157244D01*
X98787Y157059D01*
X98677Y157020D01*
X98579Y156902D01*
X98492Y156705D01*
X98417Y156429D01*
X98353Y156075D01*
X98301Y155642D01*
X98273Y155197D01*
X98353Y153925D01*
X98417Y153571D01*
X98492Y153295D01*
X98579Y153098D01*
X98677Y152980D01*
X98787Y152941D01*
X93693D01*
X93803Y152980D01*
X93901Y153098D01*
X93988Y153295D01*
X94063Y153571D01*
X94127Y153925D01*
X94179Y154358D01*
X94207Y154803D01*
X94127Y156075D01*
X94063Y156429D01*
X93988Y156705D01*
X93901Y156902D01*
X93803Y157020D01*
X93693Y157059D01*
X98787D01*
Y162941D01*
X98827Y162756D01*
D02*
G37*
G36*
X86225Y158819D02*
X86213Y158931D01*
X86177Y159031D01*
X86117Y159120D01*
X86034Y159197D01*
X85927Y159262D01*
X85795Y159315D01*
X85640Y159356D01*
X85461Y159386D01*
X85258Y159404D01*
X85032Y159409D01*
Y160591D01*
X85258Y160597D01*
X85461Y160614D01*
X85640Y160644D01*
X85795Y160685D01*
X85927Y160738D01*
X86034Y160803D01*
X86117Y160880D01*
X86177Y160968D01*
X86213Y161069D01*
X86225Y161181D01*
Y158819D01*
D02*
G37*
G36*
X119567Y72109D02*
X115433D01*
X115452Y72145D01*
X115469Y72214D01*
X115483Y72317D01*
X115507Y72623D01*
X115531Y73636D01*
X115532Y73972D01*
X119468D01*
X119567Y72109D01*
D02*
G37*
G36*
X81434Y161069D02*
X81470Y160968D01*
X81529Y160880D01*
X81613Y160803D01*
X81720Y160738D01*
X81852Y160685D01*
X82007Y160644D01*
X82186Y160614D01*
X82389Y160597D01*
X82615Y160591D01*
Y159409D01*
X82389Y159404D01*
X82186Y159386D01*
X82007Y159356D01*
X81852Y159315D01*
X81720Y159262D01*
X81613Y159197D01*
X81529Y159120D01*
X81470Y159031D01*
X81434Y158931D01*
X81422Y158819D01*
Y161181D01*
X81434Y161069D01*
D02*
G37*
G36*
X139478Y75622D02*
X139624Y73704D01*
X139712Y73184D01*
X139819Y72723D01*
X139945Y72321D01*
X140091Y71978D01*
X140256Y71694D01*
X140441Y71470D01*
X134559D01*
X134744Y71694D01*
X134909Y71978D01*
X135055Y72321D01*
X135181Y72723D01*
X135288Y73184D01*
X135376Y73704D01*
X135493Y74923D01*
X135522Y75622D01*
X135531Y76380D01*
X139469D01*
X139478Y75622D01*
D02*
G37*
G36*
X129567Y72109D02*
X125433D01*
X125452Y72145D01*
X125469Y72214D01*
X125483Y72317D01*
X125507Y72623D01*
X125531Y73636D01*
X125531Y73972D01*
X129469D01*
X129567Y72109D01*
D02*
G37*
G36*
X86225Y66819D02*
X86213Y66931D01*
X86177Y67032D01*
X86117Y67120D01*
X86034Y67197D01*
X85927Y67262D01*
X85795Y67315D01*
X85640Y67356D01*
X85461Y67386D01*
X85258Y67404D01*
X85032Y67409D01*
Y68590D01*
X85258Y68597D01*
X85461Y68614D01*
X85640Y68644D01*
X85795Y68685D01*
X85927Y68738D01*
X86034Y68803D01*
X86117Y68880D01*
X86177Y68968D01*
X86213Y69069D01*
X86225Y69181D01*
Y66819D01*
D02*
G37*
G36*
X81434Y69069D02*
X81470Y68968D01*
X81529Y68880D01*
X81613Y68803D01*
X81720Y68738D01*
X81852Y68685D01*
X82007Y68644D01*
X82186Y68614D01*
X82389Y68597D01*
X82615Y68590D01*
Y67409D01*
X82389Y67404D01*
X82186Y67386D01*
X82007Y67356D01*
X81852Y67315D01*
X81720Y67262D01*
X81613Y67197D01*
X81529Y67120D01*
X81470Y67032D01*
X81434Y66931D01*
X81422Y66819D01*
Y69181D01*
X81434Y69069D01*
D02*
G37*
G36*
X66213Y158819D02*
X66201Y158931D01*
X66166Y159031D01*
X66106Y159120D01*
X66024Y159197D01*
X65917Y159262D01*
X65788Y159315D01*
X65634Y159356D01*
X65457Y159386D01*
X65256Y159404D01*
X65032Y159409D01*
Y160591D01*
X65256Y160597D01*
X65457Y160614D01*
X65634Y160644D01*
X65788Y160685D01*
X65917Y160738D01*
X66024Y160803D01*
X66106Y160880D01*
X66166Y160968D01*
X66201Y161069D01*
X66213Y161181D01*
Y158819D01*
D02*
G37*
G36*
X107079Y157059D02*
X107040Y157244D01*
X106922Y157409D01*
X106725Y157555D01*
X106449Y157682D01*
X106095Y157788D01*
X105662Y157876D01*
X105150Y157944D01*
X103890Y158022D01*
X103142Y158031D01*
Y161969D01*
X103890Y161978D01*
X105662Y162124D01*
X106095Y162212D01*
X106449Y162319D01*
X106725Y162445D01*
X106922Y162591D01*
X107040Y162756D01*
X107079Y162941D01*
Y157059D01*
D02*
G37*
G36*
X126583Y142697D02*
X126701Y142599D01*
X126897Y142512D01*
X127173Y142437D01*
X127527Y142373D01*
X127960Y142321D01*
X129063Y142252D01*
X130480Y142228D01*
Y142129D01*
X130839Y142078D01*
X131351Y141961D01*
X131784Y141811D01*
X132138Y141627D01*
X132414Y141410D01*
X132610Y141160D01*
X132729Y140876D01*
X132768Y140559D01*
X132780Y136323D01*
X132739Y136697D01*
X132620Y137031D01*
X132422Y137327D01*
X132145Y137583D01*
X131790Y137799D01*
X131356Y137976D01*
X130843Y138114D01*
X130251Y138213D01*
X129580Y138272D01*
X129532Y138273D01*
X127527Y138147D01*
X127173Y138083D01*
X126897Y138008D01*
X126701Y137921D01*
X126583Y137823D01*
X126543Y137713D01*
Y142807D01*
X126583Y142697D01*
D02*
G37*
G36*
X86207Y102953D02*
X86106Y102918D01*
X86018Y102858D01*
X85941Y102776D01*
X85876Y102670D01*
X85823Y102540D01*
X85782Y102386D01*
X85761Y102261D01*
X85782Y102135D01*
X85823Y101980D01*
X85876Y101849D01*
X85941Y101742D01*
X86018Y101658D01*
X86106Y101599D01*
X86207Y101563D01*
X86319Y101551D01*
X83957D01*
X84069Y101563D01*
X84169Y101599D01*
X84258Y101658D01*
X84335Y101742D01*
X84400Y101849D01*
X84453Y101980D01*
X84494Y102135D01*
X84515Y102261D01*
X84494Y102386D01*
X84453Y102540D01*
X84400Y102670D01*
X84335Y102776D01*
X84258Y102858D01*
X84169Y102918D01*
X84069Y102953D01*
X83957Y102965D01*
X86319D01*
X86207Y102953D01*
D02*
G37*
G36*
X114378Y142697D02*
X114496Y142599D01*
X114693Y142512D01*
X114968Y142437D01*
X115323Y142373D01*
X115756Y142321D01*
X116858Y142252D01*
X117565Y142240D01*
X119677Y142373D01*
X120032Y142437D01*
X120307Y142512D01*
X120504Y142599D01*
X120622Y142697D01*
X120662Y142807D01*
Y137713D01*
X120622Y137823D01*
X120504Y137921D01*
X120307Y138008D01*
X120032Y138083D01*
X119677Y138147D01*
X119244Y138199D01*
X118142Y138268D01*
X117435Y138280D01*
X115323Y138147D01*
X114968Y138083D01*
X114693Y138008D01*
X114496Y137921D01*
X114378Y137823D01*
X114338Y137713D01*
Y142807D01*
X114378Y142697D01*
D02*
G37*
G36*
X98677Y147020D02*
X98579Y146902D01*
X98492Y146705D01*
X98417Y146429D01*
X98353Y146075D01*
X98301Y145642D01*
X98232Y144540D01*
X98209Y143122D01*
X94272D01*
X94266Y143870D01*
X94127Y146075D01*
X94063Y146429D01*
X93988Y146705D01*
X93901Y146902D01*
X93803Y147020D01*
X93693Y147059D01*
X98787D01*
X98677Y147020D01*
D02*
G37*
G36*
X121516Y94902D02*
X121439Y94973D01*
X121355Y95036D01*
X121264Y95092D01*
X121166Y95141D01*
X121061Y95182D01*
X120948Y95216D01*
X120829Y95242D01*
X120703Y95261D01*
X120569Y95272D01*
X120428Y95276D01*
Y96457D01*
X120569Y96460D01*
X120703Y96472D01*
X120829Y96490D01*
X120948Y96517D01*
X121061Y96550D01*
X121166Y96591D01*
X121264Y96640D01*
X121355Y96696D01*
X121439Y96760D01*
X121516Y96831D01*
Y94902D01*
D02*
G37*
G36*
X102947Y114946D02*
X102759Y115098D01*
X102514Y115235D01*
X102212Y115355D01*
X101854Y115459D01*
X101440Y115548D01*
X100969Y115620D01*
X99859Y115716D01*
X98524Y115748D01*
Y116929D01*
X99220Y116937D01*
X100969Y117058D01*
X101440Y117130D01*
X101854Y117218D01*
X102212Y117322D01*
X102514Y117443D01*
X102759Y117579D01*
X102947Y117731D01*
Y114946D01*
D02*
G37*
G36*
X92384Y123746D02*
X92523Y123640D01*
X92672Y123547D01*
X92830Y123467D01*
X92998Y123399D01*
X93175Y123345D01*
X93362Y123302D01*
X93559Y123273D01*
X93765Y123256D01*
X93980Y123252D01*
X92032Y121303D01*
X92027Y121519D01*
X92011Y121725D01*
X91981Y121922D01*
X91939Y122108D01*
X91884Y122286D01*
X91817Y122454D01*
X91736Y122612D01*
X91643Y122760D01*
X91538Y122899D01*
X91419Y123029D01*
X92255Y123864D01*
X92384Y123746D01*
D02*
G37*
G36*
X62969Y128633D02*
X63052Y128273D01*
X63191Y127890D01*
X63386Y127483D01*
X63637Y127054D01*
X63943Y126601D01*
X64305Y126126D01*
X65196Y125104D01*
X65725Y124559D01*
X62941Y121775D01*
X62396Y122304D01*
X61374Y123195D01*
X60899Y123557D01*
X60446Y123863D01*
X60017Y124114D01*
X59610Y124309D01*
X59227Y124448D01*
X58867Y124531D01*
X58530Y124559D01*
X62941Y128970D01*
X62969Y128633D01*
D02*
G37*
G36*
X94986Y131122D02*
X94882Y131118D01*
X94777Y131104D01*
X94673Y131079D01*
X94569Y131044D01*
X94466Y130999D01*
X94363Y130943D01*
X94260Y130877D01*
X94157Y130801D01*
X94055Y130714D01*
X93953Y130617D01*
X93117Y131453D01*
X93214Y131555D01*
X93301Y131657D01*
X93377Y131760D01*
X93443Y131863D01*
X93499Y131966D01*
X93544Y132070D01*
X93579Y132173D01*
X93604Y132277D01*
X93618Y132382D01*
X93622Y132486D01*
X94986Y131122D01*
D02*
G37*
G36*
X96965Y125590D02*
X96892Y125665D01*
X96811Y125732D01*
X96723Y125791D01*
X96628Y125842D01*
X96525Y125886D01*
X96414Y125921D01*
X96295Y125949D01*
X96170Y125969D01*
X96036Y125980D01*
X95895Y125984D01*
X95967Y127165D01*
X96107Y127169D01*
X96241Y127179D01*
X96368Y127197D01*
X96488Y127222D01*
X96602Y127253D01*
X96709Y127292D01*
X96809Y127337D01*
X96903Y127390D01*
X96990Y127450D01*
X97070Y127517D01*
X96965Y125590D01*
D02*
G37*
G36*
X102952Y86993D02*
X103022Y86933D01*
X103139Y86880D01*
X103302Y86835D01*
X103512Y86796D01*
X103768Y86765D01*
X104421Y86723D01*
X105260Y86709D01*
Y82772D01*
X104817Y82768D01*
X103512Y82684D01*
X103302Y82645D01*
X103139Y82600D01*
X103022Y82547D01*
X102952Y82488D01*
X102929Y82421D01*
Y87059D01*
X102952Y86993D01*
D02*
G37*
G36*
X81434Y151069D02*
X81470Y150969D01*
X81529Y150880D01*
X81613Y150803D01*
X81720Y150738D01*
X81852Y150685D01*
X82007Y150644D01*
X82186Y150614D01*
X82389Y150596D01*
X82615Y150591D01*
Y149409D01*
X82389Y149404D01*
X82186Y149386D01*
X82007Y149356D01*
X81852Y149315D01*
X81720Y149262D01*
X81613Y149197D01*
X81529Y149120D01*
X81470Y149031D01*
X81434Y148931D01*
X81422Y148819D01*
Y151181D01*
X81434Y151069D01*
D02*
G37*
G36*
X71740Y87177D02*
X71858Y87079D01*
X72055Y86992D01*
X72330Y86917D01*
X72685Y86853D01*
X73118Y86801D01*
X74220Y86732D01*
X75638Y86709D01*
Y82772D01*
X74890Y82766D01*
X72685Y82627D01*
X72330Y82563D01*
X72055Y82488D01*
X71858Y82401D01*
X71740Y82303D01*
X71701Y82193D01*
Y87287D01*
X71740Y87177D01*
D02*
G37*
G36*
X114961Y157020D02*
X114626Y156902D01*
X114331Y156705D01*
X114075Y156429D01*
X113858Y156075D01*
X113681Y155642D01*
X113543Y155130D01*
X113445Y154540D01*
X113386Y153870D01*
X113376Y153487D01*
X113376Y153476D01*
X113522Y151705D01*
X113609Y151271D01*
X113716Y150917D01*
X113843Y150642D01*
X113988Y150445D01*
X114154Y150327D01*
X114338Y150287D01*
X108457D01*
X108642Y150327D01*
X108807Y150445D01*
X108953Y150642D01*
X109079Y150917D01*
X109186Y151271D01*
X109274Y151705D01*
X109342Y152216D01*
X109419Y153476D01*
X109420Y153487D01*
X109409Y153870D01*
X109350Y154540D01*
X109252Y155130D01*
X109114Y155642D01*
X108937Y156075D01*
X108721Y156429D01*
X108465Y156705D01*
X108169Y156902D01*
X107835Y157020D01*
X107461Y157059D01*
X115335D01*
X114961Y157020D01*
D02*
G37*
G36*
X86225Y148819D02*
X86213Y148931D01*
X86177Y149031D01*
X86117Y149120D01*
X86034Y149197D01*
X85927Y149262D01*
X85795Y149315D01*
X85640Y149356D01*
X85461Y149386D01*
X85258Y149404D01*
X85032Y149409D01*
Y150591D01*
X85258Y150596D01*
X85461Y150614D01*
X85640Y150644D01*
X85795Y150685D01*
X85927Y150738D01*
X86034Y150803D01*
X86117Y150880D01*
X86177Y150969D01*
X86213Y151069D01*
X86225Y151181D01*
Y148819D01*
D02*
G37*
G36*
X69829Y147059D02*
X69728Y147023D01*
X69640Y146964D01*
X69563Y146880D01*
X69498Y146773D01*
X69445Y146642D01*
X69403Y146487D01*
X69374Y146308D01*
X69356Y146105D01*
X69350Y145878D01*
X68169D01*
X68163Y146105D01*
X68146Y146308D01*
X68116Y146487D01*
X68075Y146642D01*
X68022Y146773D01*
X67957Y146880D01*
X67880Y146964D01*
X67791Y147023D01*
X67691Y147059D01*
X67579Y147071D01*
X69941D01*
X69829Y147059D01*
D02*
G37*
G36*
X128099Y97619D02*
X128219Y95869D01*
X128291Y95399D01*
X128379Y94985D01*
X128484Y94627D01*
X128604Y94325D01*
X128740Y94080D01*
X128893Y93891D01*
X126107D01*
X126260Y94080D01*
X126396Y94325D01*
X126516Y94627D01*
X126621Y94985D01*
X126709Y95399D01*
X126781Y95869D01*
X126877Y96979D01*
X126909Y98315D01*
X128091D01*
X128099Y97619D01*
D02*
G37*
G36*
X133094Y91931D02*
X133106Y91798D01*
X133124Y91671D01*
X133150Y91552D01*
X133184Y91439D01*
X133225Y91334D01*
X133274Y91236D01*
X133330Y91145D01*
X133394Y91061D01*
X133465Y90984D01*
X131535D01*
X131606Y91061D01*
X131670Y91145D01*
X131726Y91236D01*
X131775Y91334D01*
X131816Y91439D01*
X131850Y91552D01*
X131876Y91671D01*
X131895Y91798D01*
X131906Y91931D01*
X131909Y92072D01*
X133091D01*
X133094Y91931D01*
D02*
G37*
G36*
X70738Y90476D02*
X70884Y88705D01*
X70971Y88271D01*
X71078Y87917D01*
X71205Y87642D01*
X71351Y87445D01*
X71516Y87327D01*
X71701Y87287D01*
X65819D01*
X66004Y87327D01*
X66169Y87445D01*
X66315Y87642D01*
X66441Y87917D01*
X66548Y88271D01*
X66636Y88705D01*
X66704Y89216D01*
X66782Y90476D01*
X66791Y91224D01*
X70728D01*
X70738Y90476D01*
D02*
G37*
G36*
X91978Y90295D02*
X92124Y88624D01*
X92212Y88215D01*
X92318Y87881D01*
X92445Y87621D01*
X92591Y87436D01*
X92756Y87324D01*
X92941Y87287D01*
X87059D01*
X87244Y87324D01*
X87409Y87436D01*
X87555Y87621D01*
X87682Y87881D01*
X87788Y88215D01*
X87876Y88624D01*
X87944Y89107D01*
X87993Y89663D01*
X88032Y91000D01*
X91969D01*
X91978Y90295D01*
D02*
G37*
D10*
X123602Y140260D02*
D03*
Y147740D02*
D03*
X90000Y77260D02*
D03*
Y84740D02*
D03*
X100000Y77260D02*
D03*
Y84740D02*
D03*
X68760Y77260D02*
D03*
Y84740D02*
D03*
X111398Y147740D02*
D03*
Y140260D02*
D03*
D11*
X114862Y111221D02*
D03*
Y108661D02*
D03*
Y106102D02*
D03*
Y103543D02*
D03*
Y100984D02*
D03*
Y98425D02*
D03*
Y95866D02*
D03*
Y113779D02*
D03*
Y116339D02*
D03*
Y118898D02*
D03*
Y121457D02*
D03*
Y124016D02*
D03*
Y126575D02*
D03*
Y129134D02*
D03*
X85138Y113779D02*
D03*
Y116339D02*
D03*
Y118898D02*
D03*
Y121457D02*
D03*
Y124016D02*
D03*
Y126575D02*
D03*
Y129134D02*
D03*
Y111221D02*
D03*
Y108661D02*
D03*
Y106102D02*
D03*
Y103543D02*
D03*
Y100984D02*
D03*
Y98425D02*
D03*
Y95866D02*
D03*
D12*
X96240Y160000D02*
D03*
X88760D02*
D03*
X96240Y150000D02*
D03*
X88760D02*
D03*
X68760Y160000D02*
D03*
Y150000D02*
D03*
Y68000D02*
D03*
X96240D02*
D03*
X88760D02*
D03*
D13*
X77440Y160000D02*
D03*
Y150000D02*
D03*
Y68000D02*
D03*
D14*
X123602Y160000D02*
D03*
X111398D02*
D03*
D15*
X154449Y108799D02*
Y133051D01*
X143780Y137421D02*
X149921D01*
X154449Y141949D02*
Y156201D01*
X149921Y137421D02*
X150000Y137500D01*
X154449Y141949D01*
X150000Y137500D02*
X154449Y133051D01*
X68760Y84740D02*
Y118740D01*
X60000Y127500D02*
X68760Y118740D01*
X96240Y150000D02*
Y160000D01*
X111398D01*
Y147740D02*
Y160000D01*
Y140260D02*
X122102D01*
X122102Y140260D01*
X141299Y156201D02*
X154449D01*
X137500Y160000D02*
X141299Y156201D01*
X154449Y108799D02*
X171201D01*
X185500Y94500D01*
X133067Y140260D02*
X135906Y137421D01*
X123602Y140260D02*
X133067D01*
X122102D02*
X123602D01*
Y147740D02*
Y160000D01*
X137500D01*
X96240Y140760D02*
Y150000D01*
X104339Y116339D02*
Y132661D01*
X96240Y140760D02*
X104339Y132661D01*
X137500Y70000D02*
Y116339D01*
X127500Y70000D02*
Y92500D01*
X68760Y77260D02*
X100000D01*
X68760Y62240D02*
Y77260D01*
Y84740D02*
X78000D01*
X100000Y101000D02*
X117500Y83500D01*
Y70000D02*
Y83500D01*
X90000Y84740D02*
Y91000D01*
X100000Y101000D01*
X96240Y68000D02*
X108000D01*
X100000Y84740D02*
X105260D01*
X108000Y82000D01*
Y68000D02*
Y82000D01*
X68760Y62240D02*
X71000Y60000D01*
X161000D01*
X185500Y84500D01*
Y94500D01*
D16*
X77440Y160000D02*
X88760D01*
X77440Y150000D02*
X88760D01*
X64000Y160000D02*
X68760D01*
X62000Y158000D02*
X64000Y160000D01*
X68760Y140240D02*
Y150000D01*
X85138Y100984D02*
Y103543D01*
X78339Y108661D02*
X85138D01*
X78780Y111221D02*
X85138D01*
X77440Y68000D02*
X88760D01*
X81221Y113779D02*
X85138D01*
X80000Y115000D02*
X81221Y113779D01*
X80000Y115000D02*
Y120000D01*
X81457Y121457D02*
X85138D01*
X80000Y120000D02*
X81457Y121457D01*
X77000Y113000D02*
X78780Y111221D01*
X77000Y113000D02*
Y132000D01*
X68760Y140240D02*
X77000Y132000D01*
X74000Y113000D02*
X78339Y108661D01*
X62000Y142000D02*
Y158000D01*
Y142000D02*
X74000Y130000D01*
Y113000D02*
Y130000D01*
X85138Y129134D02*
X91634D01*
X95000Y132500D01*
X85138Y116339D02*
X104339D01*
X95221Y113779D02*
X100000Y109000D01*
X85138Y113779D02*
X95221D01*
X100000Y109000D02*
X105500D01*
X107720Y111221D01*
X114862D01*
X85138Y124016D02*
X91268D01*
X94000Y121283D01*
X85138Y126575D02*
X98000D01*
X114862Y103543D02*
X123957D01*
X127500Y100000D01*
Y92500D02*
Y100000D01*
X114862Y95866D02*
X122500D01*
X94543Y103543D02*
X100000Y109000D01*
X85138Y103543D02*
X94543D01*
X114862Y106102D02*
X126898D01*
X132500Y100500D01*
Y90000D02*
Y100500D01*
D17*
X60000Y97500D02*
D03*
Y107500D02*
D03*
Y117500D02*
D03*
X117500Y70000D02*
D03*
X127500D02*
D03*
X155500Y84500D02*
D03*
X165500D02*
D03*
X175500D02*
D03*
D18*
X60000Y127500D02*
D03*
D19*
X137500Y70000D02*
D03*
X185500Y84500D02*
D03*
D20*
X154449Y108799D02*
D03*
Y156201D02*
D03*
D21*
X143780Y127579D02*
D03*
Y137421D02*
D03*
X135906Y127579D02*
D03*
D22*
Y137421D02*
D03*
D23*
X95000Y132500D02*
D03*
X98000Y126500D02*
D03*
X122500Y95866D02*
D03*
X132500Y90000D02*
D03*
D24*
X104339Y116339D02*
D03*
X100000Y109000D02*
D03*
X94000Y121283D02*
D03*
X78000Y84740D02*
D03*
X100000Y101000D02*
D03*
X108000Y68000D02*
D03*
D25*
X137500Y116339D02*
D03*
M02*
