M48
;Layer_Color=9474304
;FILE_FORMAT=2:5
INCH,TZ
;TYPE=PLATED
T1F00S00C0.01378
T2F00S00C0.01968
T3F00S00C0.02756
T4F00S00C0.03543
T5F00S00C0.03622
T6F00S00C0.09055
%
T01
X122500Y95866
X132500Y90000
X98000Y126500
X95000Y132500
T02
X78000Y84740
X100000Y101000
Y109000
X104339Y116339
X94000Y121283
X108000Y68000
T03
X137500Y116339
T04
X117500Y70000
X127500
X137500
X155500Y84500
X165500
X175500
X185500
X60000Y97500
Y107500
Y117500
Y127500
T05
X135906Y127579
X143780
Y137421
X135906
T06
X154449Y108799
Y156201
M30
